<svg width="10" height="6" viewBox="0 0 10 6" fill="none" xmlns="http://www.w3.org/2000/svg">
<path d="M9.37508 0.500005C9.29296 0.500022 9.21165 0.516222 9.13579 0.54768C9.05994 0.579137 8.99103 0.625236 8.933 0.683339L5.73675 3.87959C5.64002 3.97635 5.52517 4.0531 5.39877 4.10546C5.27237 4.15783 5.1369 4.18478 5.00008 4.18478C4.86326 4.18478 4.72779 4.15783 4.60139 4.10546C4.47499 4.0531 4.36014 3.97635 4.26341 3.87959L1.07091 0.687088C0.953037 0.573239 0.795161 0.510243 0.631288 0.511667C0.467415 0.513091 0.310657 0.578822 0.194777 0.694702C0.078897 0.810582 0.0131664 0.96734 0.0117424 1.13121C0.0103184 1.29509 0.0733149 1.45296 0.187164 1.57084L3.37966 4.76334C3.8097 5.19258 4.39248 5.43365 5.00008 5.43365C5.60768 5.43365 6.19046 5.19258 6.6205 4.76334L9.81716 1.56667C9.90448 1.47924 9.96393 1.36789 9.98799 1.24668C10.012 1.12548 9.99963 0.999863 9.95232 0.88571C9.90501 0.771557 9.82492 0.67399 9.72218 0.605338C9.61944 0.536686 9.49865 0.500031 9.37508 0.500005Z" fill="#717380"/>
</svg>
