<svg width="16" height="8" viewBox="0 0 16 8" fill="none" xmlns="http://www.w3.org/2000/svg">
<path d="M14.9999 8.00004C14.8685 8.00001 14.7384 7.97409 14.6171 7.92376C14.4957 7.87343 14.3854 7.79967 14.2926 7.7067L9.1786 2.59271C9.02383 2.4379 8.84008 2.31509 8.63784 2.2313C8.4356 2.14752 8.21884 2.1044 7.99993 2.1044C7.78103 2.1044 7.56426 2.14752 7.36203 2.2313C7.15979 2.31509 6.97604 2.4379 6.82127 2.59271L1.71327 7.7007C1.52466 7.88286 1.27206 7.98366 1.00987 7.98138C0.747668 7.9791 0.496856 7.87393 0.311448 7.68852C0.12604 7.50312 0.0208709 7.2523 0.0185925 6.99011C0.0163141 6.72791 0.117108 6.47531 0.299267 6.28671L5.40727 1.17871C6.09533 0.491924 7.02777 0.106201 7.99993 0.106201C8.97209 0.106201 9.90454 0.491924 10.5926 1.17871L15.7073 6.29337C15.847 6.43326 15.9421 6.61143 15.9806 6.80535C16.0191 6.99928 15.9992 7.20026 15.9235 7.38291C15.8478 7.56555 15.7197 7.72166 15.5553 7.8315C15.3909 7.94135 15.1976 8 14.9999 8.00004Z" fill="#5A5F68"/>
</svg>
