<svg width="16" height="16" viewBox="0 0 16 16" fill="none" xmlns="http://www.w3.org/2000/svg">
<g clip-path="url(#clip0_1144_5127)">
<path d="M0.58686 9.39327L3.16686 11.9999C3.22884 12.0624 3.30257 12.112 3.38381 12.1459C3.46505 12.1797 3.55219 12.1971 3.64019 12.1971C3.7282 12.1971 3.81534 12.1797 3.89658 12.1459C3.97782 12.112 4.05155 12.0624 4.11353 11.9999C4.17601 11.938 4.22561 11.8642 4.25945 11.783C4.2933 11.7017 4.31073 11.6146 4.31073 11.5266C4.31073 11.4386 4.2933 11.3515 4.25945 11.2702C4.22561 11.189 4.17601 11.1152 4.11353 11.0533L1.74019 8.6666H15.3335C15.5103 8.6666 15.6799 8.59636 15.8049 8.47134C15.93 8.34631 16.0002 8.17674 16.0002 7.99993C16.0002 7.82312 15.93 7.65355 15.8049 7.52853C15.6799 7.4035 15.5103 7.33327 15.3335 7.33327H1.70019L4.11353 4.91993C4.23172 4.79595 4.29765 4.63123 4.29765 4.45993C4.29765 4.28864 4.23172 4.12392 4.11353 3.99993C4.05155 3.93745 3.97782 3.88785 3.89658 3.85401C3.81534 3.82016 3.7282 3.80273 3.64019 3.80273C3.55219 3.80273 3.46505 3.82016 3.38381 3.85401C3.30257 3.88785 3.22884 3.93745 3.16686 3.99993L0.58686 6.5666C0.212325 6.9416 0.00195313 7.44993 0.00195312 7.97993C0.00195312 8.50994 0.212325 9.01827 0.58686 9.39327V9.39327Z" fill="#717380"/>
</g>
<defs>
<clipPath id="clip0_1144_5127">
<rect width="16" height="16" fill="white"/>
</clipPath>
</defs>
</svg>
