<svg width="16" height="16" viewBox="0 0 16 16" fill="none" xmlns="http://www.w3.org/2000/svg">
<g clip-path="url(#clip0_1144_5719)">
<path d="M14.882 9.10649L13.6591 4.54916C13.3007 3.21405 12.5217 2.04135 11.446 1.21747C10.3703 0.393593 9.05957 -0.0341842 7.72219 0.00213589C6.38482 0.038456 5.09754 0.536789 4.06498 1.41792C3.03241 2.29906 2.31382 3.51243 2.02342 4.86516L1.07668 9.27516C0.972105 9.76245 0.974522 10.2678 1.08376 10.754C1.19299 11.2402 1.40625 11.6948 1.70779 12.0842C2.00933 12.4736 2.39145 12.7879 2.82594 13.0038C3.26043 13.2197 3.7362 13.3318 4.21811 13.3318H4.93509C5.08281 14.0854 5.47747 14.7628 6.05222 15.2494C6.62697 15.736 7.34645 16.0018 8.08875 16.0018C8.83106 16.0018 9.55054 15.736 10.1253 15.2494C10.7 14.7628 11.0947 14.0854 11.2424 13.3318H11.7818C12.2779 13.3319 12.7672 13.2131 13.2117 12.9848C13.6561 12.7565 14.0436 12.4248 14.3438 12.0157C14.6441 11.6066 14.8489 11.1312 14.9424 10.6265C15.0358 10.1218 15.0154 9.60162 14.8826 9.10649H14.882ZM8.08875 14.6652C7.69084 14.6634 7.30315 14.5344 6.97873 14.2958C6.65431 14.0571 6.409 13.7204 6.27636 13.3318H9.90114C9.76851 13.7204 9.5232 14.0571 9.19878 14.2958C8.87435 14.5344 8.48667 14.6634 8.08875 14.6652ZM13.3187 11.2085C13.1393 11.4549 12.907 11.6547 12.6401 11.7918C12.3732 11.9289 12.079 11.9997 11.7811 11.9985H4.21811C3.929 11.9984 3.64358 11.9311 3.38293 11.8015C3.12229 11.672 2.89306 11.4834 2.71218 11.2498C2.5313 11.0161 2.40338 10.7434 2.33786 10.4517C2.27234 10.16 2.2709 9.85683 2.33364 9.56449L3.27974 5.15382C3.5078 4.0913 4.07221 3.13823 4.88325 2.44612C5.69429 1.75402 6.7054 1.36261 7.75586 1.3341C8.80632 1.3056 9.83583 1.64164 10.6807 2.2888C11.5257 2.93597 12.1375 3.85712 12.4189 4.90582L13.6418 9.46316C13.7226 9.76007 13.7354 10.0724 13.6794 10.3754C13.6233 10.6783 13.4998 10.9636 13.3187 11.2085Z" fill="#717380"/>
</g>
<defs>
<clipPath id="clip0_1144_5719">
<rect width="16" height="16" fill="white"/>
</clipPath>
</defs>
</svg>
