<svg width="16" height="17" viewBox="0 0 16 17" fill="none" xmlns="http://www.w3.org/2000/svg">
<g clip-path="url(#clip0_9_139)">
<path d="M12.6667 3.62905H11.9333C11.7786 2.87735 11.3692 2.20193 10.7742 1.71663C10.1791 1.23133 9.4348 0.965816 8.66667 0.964848L7.33333 0.964848C6.5652 0.965816 5.82088 1.23133 5.22583 1.71663C4.63079 2.20193 4.2214 2.87735 4.06667 3.62905H3.33333C2.4496 3.63011 1.60237 3.98131 0.97748 4.60562C0.352588 5.22994 0.00105857 6.07638 0 6.9593L0 8.95745H16V6.9593C15.9989 6.07638 15.6474 5.22994 15.0225 4.60562C14.3976 3.98131 13.5504 3.63011 12.6667 3.62905ZM5.456 3.62905C5.59339 3.2408 5.84749 2.90445 6.18353 2.666C6.51958 2.42755 6.92116 2.29865 7.33333 2.29695H8.66667C9.07884 2.29865 9.48042 2.42755 9.81647 2.666C10.1525 2.90445 10.4066 3.2408 10.544 3.62905H5.456Z" fill="#ED174A"/>
<path d="M8.66667 10.9556C8.66667 11.1323 8.59643 11.3017 8.47141 11.4266C8.34638 11.5515 8.17681 11.6217 8 11.6217C7.82319 11.6217 7.65362 11.5515 7.5286 11.4266C7.40357 11.3017 7.33333 11.1323 7.33333 10.9556V10.2896H0V13.6198C0.00105857 14.5027 0.352588 15.3492 0.97748 15.9735C1.60237 16.5978 2.4496 16.949 3.33333 16.9501H12.6667C13.5504 16.949 14.3976 16.5978 15.0225 15.9735C15.6474 15.3492 15.9989 14.5027 16 13.6198V10.2896H8.66667V10.9556Z" fill="#ED174A"/>
</g>
<defs>
<clipPath id="clip0_9_139">
<rect width="16" height="15.9852" fill="white" transform="translate(0 0.964848)"/>
</clipPath>
</defs>
</svg>
