<svg width="16" height="16" viewBox="0 0 16 16" fill="none" xmlns="http://www.w3.org/2000/svg">
<g clip-path="url(#clip0_1144_8434)">
<path d="M16 7.49801C15.9036 5.93802 15.3528 4.44035 14.4155 3.18963C13.4782 1.9389 12.1954 0.989805 10.7252 0.45934C9.25497 -0.0711256 7.66169 -0.159768 6.14173 0.20434C4.62177 0.568448 3.24158 1.36939 2.17132 2.50842C1.10106 3.64745 0.387514 5.07478 0.118648 6.61445C-0.150218 8.15411 0.037351 9.7388 0.658231 11.1732C1.27911 12.6075 2.30616 13.8288 3.61276 14.6865C4.91936 15.5442 6.44839 16.0008 8.01135 16H12.6667C13.5505 15.9991 14.3978 15.6477 15.0227 15.0227C15.6477 14.3978 15.9991 13.5505 16 12.6667V7.49801ZM14.6667 12.6667C14.6667 13.1971 14.456 13.7058 14.0809 14.0809C13.7058 14.456 13.1971 14.6667 12.6667 14.6667H8.01135C7.07064 14.6663 6.14058 14.4676 5.28182 14.0835C4.42305 13.6995 3.65487 13.1388 3.02735 12.438C2.3968 11.7375 1.92331 10.9103 1.63862 10.0119C1.35392 9.11341 1.26462 8.16447 1.37669 7.22868C1.55364 5.75264 2.21681 4.37747 3.26165 3.31996C4.30648 2.26245 5.67356 1.58275 7.14735 1.38801C7.43484 1.35198 7.72428 1.33372 8.01402 1.33334C9.56767 1.32911 11.0732 1.87194 12.2667 2.86668C12.9637 3.44597 13.5358 4.16078 13.9484 4.96776C14.3609 5.77475 14.6053 6.6571 14.6667 7.56134V12.6667Z" fill="#78A26A"/>
<path d="M5.33341 6.00002H8.00008C8.17689 6.00002 8.34646 5.92978 8.47149 5.80475C8.59651 5.67973 8.66675 5.51016 8.66675 5.33335C8.66675 5.15654 8.59651 4.98697 8.47149 4.86195C8.34646 4.73692 8.17689 4.66669 8.00008 4.66669H5.33341C5.1566 4.66669 4.98703 4.73692 4.86201 4.86195C4.73699 4.98697 4.66675 5.15654 4.66675 5.33335C4.66675 5.51016 4.73699 5.67973 4.86201 5.80475C4.98703 5.92978 5.1566 6.00002 5.33341 6.00002Z" fill="#78A26A"/>
<path d="M10.6667 7.33331H5.33341C5.1566 7.33331 4.98703 7.40355 4.86201 7.52858C4.73699 7.6536 4.66675 7.82317 4.66675 7.99999C4.66675 8.1768 4.73699 8.34637 4.86201 8.47139C4.98703 8.59642 5.1566 8.66666 5.33341 8.66666H10.6667C10.8436 8.66666 11.0131 8.59642 11.1382 8.47139C11.2632 8.34637 11.3334 8.1768 11.3334 7.99999C11.3334 7.82317 11.2632 7.6536 11.1382 7.52858C11.0131 7.40355 10.8436 7.33331 10.6667 7.33331Z" fill="#78A26A"/>
<path d="M10.6667 10H5.33341C5.1566 10 4.98703 10.0702 4.86201 10.1953C4.73699 10.3203 4.66675 10.4899 4.66675 10.6667C4.66675 10.8435 4.73699 11.0131 4.86201 11.1381C4.98703 11.2631 5.1566 11.3333 5.33341 11.3333H10.6667C10.8436 11.3333 11.0131 11.2631 11.1382 11.1381C11.2632 11.0131 11.3334 10.8435 11.3334 10.6667C11.3334 10.4899 11.2632 10.3203 11.1382 10.1953C11.0131 10.0702 10.8436 10 10.6667 10Z" fill="#78A26A"/>
</g>
<defs>
<clipPath id="clip0_1144_8434">
<rect width="16" height="16" fill="white"/>
</clipPath>
</defs>
</svg>
