<svg width="16" height="16" viewBox="0 0 16 16" fill="none" xmlns="http://www.w3.org/2000/svg">
<path d="M8.73321 12.6667C8.60136 12.6661 8.47264 12.6265 8.36331 12.5528C8.25399 12.4791 8.16898 12.3746 8.11903 12.2526C8.06908 12.1305 8.05643 11.9965 8.08269 11.8672C8.10895 11.738 8.17293 11.6195 8.26654 11.5267L11.3332 8.47333C11.3957 8.41135 11.4453 8.33762 11.4791 8.25638C11.513 8.17514 11.5304 8.088 11.5304 7.99999C11.5304 7.91199 11.513 7.82485 11.4791 7.74361C11.4453 7.66237 11.3957 7.58863 11.3332 7.52666L8.26654 4.47332C8.20406 4.41135 8.15446 4.33761 8.12061 4.25637C8.08677 4.17514 8.06934 4.088 8.06934 3.99999C8.06934 3.91198 8.08677 3.82484 8.12061 3.74361C8.15446 3.66237 8.20406 3.58863 8.26654 3.52666C8.39145 3.40249 8.56042 3.33279 8.73654 3.33279C8.91267 3.33279 9.08164 3.40249 9.20654 3.52666L12.2666 6.58666C12.6411 6.96166 12.8515 7.46999 12.8515 7.99999C12.8515 8.53 12.6411 9.03833 12.2666 9.41333L9.20654 12.4733C9.14425 12.5351 9.07037 12.584 8.98915 12.6172C8.90792 12.6504 8.82095 12.6672 8.73321 12.6667Z" fill="#F98585"/>
<path d="M4.06622 12.6667C3.93437 12.6661 3.80564 12.6265 3.69632 12.5528C3.587 12.4791 3.50199 12.3746 3.45204 12.2526C3.40209 12.1305 3.38944 11.9965 3.4157 11.8672C3.44195 11.738 3.50593 11.6195 3.59955 11.5267L7.12622 7.99999L3.59955 4.47332C3.53706 4.41135 3.48747 4.33761 3.45362 4.25637C3.41978 4.17514 3.40235 4.088 3.40235 3.99999C3.40235 3.91198 3.41978 3.82484 3.45362 3.74361C3.48747 3.66237 3.53706 3.58863 3.59955 3.52666C3.72446 3.40249 3.89342 3.33279 4.06955 3.33279C4.24567 3.33279 4.41464 3.40249 4.53955 3.52666L8.53955 7.52666C8.60204 7.58863 8.65163 7.66237 8.68548 7.74361C8.71932 7.82485 8.73675 7.91199 8.73675 7.99999C8.73675 8.088 8.71932 8.17514 8.68548 8.25638C8.65163 8.33762 8.60204 8.41135 8.53955 8.47333L4.53955 12.4733C4.47726 12.5351 4.40338 12.584 4.32215 12.6172C4.24093 12.6504 4.15395 12.6672 4.06622 12.6667Z" fill="#F98585"/>
</svg>
