<svg width="14" height="17" viewBox="0 0 14 17" fill="none" xmlns="http://www.w3.org/2000/svg">
<path d="M10.3334 10.2895C10.3334 10.4662 10.2631 10.6356 10.1381 10.7605C10.0131 10.8854 9.84352 10.9556 9.66671 10.9556H4.33337C4.15656 10.9556 3.98699 10.8854 3.86197 10.7605C3.73695 10.6356 3.66671 10.4662 3.66671 10.2895C3.66671 10.1129 3.73695 9.94348 3.86197 9.81857C3.98699 9.69366 4.15656 9.62349 4.33337 9.62349H9.66671C9.84352 9.62349 10.0131 9.69366 10.1381 9.81857C10.2631 9.94348 10.3334 10.1129 10.3334 10.2895ZM7.66671 12.2877H4.33337C4.15656 12.2877 3.98699 12.3579 3.86197 12.4828C3.73695 12.6077 3.66671 12.7771 3.66671 12.9537C3.66671 13.1304 3.73695 13.2998 3.86197 13.4247C3.98699 13.5496 4.15656 13.6198 4.33337 13.6198H7.66671C7.84352 13.6198 8.01309 13.5496 8.13811 13.4247C8.26314 13.2998 8.33337 13.1304 8.33337 12.9537C8.33337 12.7771 8.26314 12.6077 8.13811 12.4828C8.01309 12.3579 7.84352 12.2877 7.66671 12.2877ZM13.6667 7.94837V13.6198C13.6656 14.5027 13.3141 15.3491 12.6892 15.9735C12.0643 16.5978 11.2171 16.949 10.3334 16.95H3.66671C2.78298 16.949 1.93575 16.5978 1.31085 15.9735C0.685962 15.3491 0.334433 14.5027 0.333374 13.6198V4.29509C0.334433 3.41217 0.685962 2.56573 1.31085 1.94141C1.93575 1.3171 2.78298 0.965894 3.66671 0.964836H6.67671C7.28979 0.96326 7.8971 1.08312 8.46352 1.31748C9.02995 1.55185 9.54426 1.89607 9.97671 2.33024L12.2994 4.65209C12.7342 5.08385 13.0789 5.59752 13.3137 6.16334C13.5484 6.72916 13.6684 7.33589 13.6667 7.94837ZM9.03404 3.27203C8.82423 3.069 8.58866 2.89433 8.33337 2.75251V5.62719C8.33337 5.80383 8.40361 5.97325 8.52864 6.09815C8.65366 6.22306 8.82323 6.29324 9.00004 6.29324H11.8774C11.7353 6.03826 11.5603 5.80312 11.3567 5.59388L9.03404 3.27203ZM12.3334 7.94837C12.3334 7.83847 12.312 7.73324 12.302 7.62534H9.00004C8.46961 7.62534 7.9609 7.41482 7.58583 7.04009C7.21075 6.66537 7.00004 6.15713 7.00004 5.62719V2.32824C6.89204 2.31825 6.78604 2.29694 6.67671 2.29694H3.66671C3.13627 2.29694 2.62757 2.50745 2.25249 2.88218C1.87742 3.25691 1.66671 3.76514 1.66671 4.29509V13.6198C1.66671 14.1497 1.87742 14.658 2.25249 15.0327C2.62757 15.4074 3.13627 15.6179 3.66671 15.6179H10.3334C10.8638 15.6179 11.3725 15.4074 11.7476 15.0327C12.1227 14.658 12.3334 14.1497 12.3334 13.6198V7.94837Z" fill="#717380"/>
</svg>
