<svg width="14" height="16" viewBox="0 0 14 16" fill="none" xmlns="http://www.w3.org/2000/svg">
<path d="M8.33331 4.66666V0.306659C8.95002 0.539549 9.51017 0.900867 9.97665 1.36666L12.2993 3.69066C12.7656 4.15658 13.1272 4.71659 13.36 5.33333H8.99998C8.82317 5.33333 8.6536 5.26309 8.52858 5.13806C8.40355 5.01304 8.33331 4.84347 8.33331 4.66666ZM13.6666 6.98999V12.6667C13.6656 13.5504 13.3141 14.3976 12.6892 15.0225C12.0643 15.6474 11.217 15.9989 10.3333 16H3.66665C2.78292 15.9989 1.93568 15.6474 1.31079 15.0225C0.685901 14.3976 0.334372 13.5504 0.333313 12.6667V3.33333C0.334372 2.4496 0.685901 1.60236 1.31079 0.977472C1.93568 0.35258 2.78292 0.00105094 3.66665 -7.62939e-06L6.67665 -7.62939e-06C6.78531 -7.62939e-06 6.89265 0.00865904 6.99998 0.0159924V4.66666C6.99998 5.19709 7.21069 5.7058 7.58577 6.08087C7.96084 6.45595 8.46955 6.66666 8.99998 6.66666H13.6506C13.658 6.77399 13.6666 6.88133 13.6666 6.98999ZM8.33331 12.6667C8.33331 12.4898 8.26308 12.3203 8.13805 12.1953C8.01303 12.0702 7.84346 12 7.66665 12H4.33331C4.1565 12 3.98693 12.0702 3.86191 12.1953C3.73688 12.3203 3.66665 12.4898 3.66665 12.6667C3.66665 12.8435 3.73688 13.013 3.86191 13.1381C3.98693 13.2631 4.1565 13.3333 4.33331 13.3333H7.66665C7.84346 13.3333 8.01303 13.2631 8.13805 13.1381C8.26308 13.013 8.33331 12.8435 8.33331 12.6667ZM10.3333 9.99999C10.3333 9.82318 10.2631 9.65361 10.1381 9.52859C10.013 9.40356 9.84346 9.33333 9.66665 9.33333H4.33331C4.1565 9.33333 3.98693 9.40356 3.86191 9.52859C3.73688 9.65361 3.66665 9.82318 3.66665 9.99999C3.66665 10.1768 3.73688 10.3464 3.86191 10.4714C3.98693 10.5964 4.1565 10.6667 4.33331 10.6667H9.66665C9.84346 10.6667 10.013 10.5964 10.1381 10.4714C10.2631 10.3464 10.3333 10.1768 10.3333 9.99999Z" fill="#ED174A"/>
</svg>
