<svg width="14" height="16" viewBox="0 0 14 16" fill="none" xmlns="http://www.w3.org/2000/svg">
<path d="M12.77 2.18133L11.2473 0.608666C11.0603 0.416644 10.8369 0.263893 10.5901 0.159374C10.3432 0.0548549 10.078 0.000670954 9.81 0L6.66667 0C5.89853 0.000969682 5.15421 0.266727 4.55917 0.752478C3.96412 1.23823 3.55473 1.91427 3.4 2.66667H3.33333C2.4496 2.66772 1.60237 3.01925 0.97748 3.64414C0.352588 4.26904 0.00105857 5.11627 0 6V12.6667C0.00105857 13.5504 0.352588 14.3976 0.97748 15.0225C1.60237 15.6474 2.4496 15.9989 3.33333 16H7.33334C8.21707 15.9989 9.0643 15.6474 9.68919 15.0225C10.3141 14.3976 10.6656 13.5504 10.6667 12.6667V12.6C11.4191 12.4453 12.0951 12.0359 12.5809 11.4408C13.0666 10.8458 13.3324 10.1015 13.3333 9.33333V3.57333C13.3343 3.05361 13.1322 2.55408 12.77 2.18133ZM7.33334 14.6667H3.33333C2.8029 14.6667 2.29419 14.4559 1.91912 14.0809C1.54405 13.7058 1.33333 13.1971 1.33333 12.6667V6C1.33333 5.46956 1.54405 4.96086 1.91912 4.58578C2.29419 4.21071 2.8029 4 3.33333 4V9.33333C3.33439 10.2171 3.68592 11.0643 4.31081 11.6892C4.93571 12.3141 5.78294 12.6656 6.66667 12.6667H9.33334C9.33334 13.1971 9.12262 13.7058 8.74755 14.0809C8.37248 14.4559 7.86377 14.6667 7.33334 14.6667ZM10 11.3333H6.66667C6.13624 11.3333 5.62753 11.1226 5.25245 10.7475C4.87738 10.3725 4.66667 9.86376 4.66667 9.33333V3.33333C4.66667 2.8029 4.87738 2.29419 5.25245 1.91912C5.62753 1.54405 6.13624 1.33333 6.66667 1.33333H9.33334V2.66667C9.33334 3.02029 9.47381 3.35943 9.72386 3.60947C9.97391 3.85952 10.313 4 10.6667 4H12V9.33333C12 9.86376 11.7893 10.3725 11.4142 10.7475C11.0391 11.1226 10.5304 11.3333 10 11.3333Z" fill="#3D3F47"/>
</svg>
