<svg width="16" height="16" viewBox="0 0 16 16" fill="none" xmlns="http://www.w3.org/2000/svg">
<path d="M7.99991 14C5.42379 13.9971 3.33619 11.9094 3.33325 9.33335V3.33334C3.33325 3.2 3.34191 3.06669 3.35325 2.93869C2.12925 3.4645 1.33525 4.66784 1.33325 6V12.6667C1.33544 14.5067 2.82653 15.9978 4.66657 16H8.66657C9.99873 15.998 11.2021 15.204 11.7279 13.98C11.5946 13.9914 11.4666 14 11.3333 14H7.99991Z" fill="#7B61FF"/>
<path d="M14.1033 2.18134L12.5807 0.608687C12.413 0.438906 12.2164 0.3005 12 0.2V2.66665H14.44C14.3525 2.48906 14.2391 2.32547 14.1033 2.18134Z" fill="#7B61FF"/>
<path d="M11.3333 2.66666C11.3333 3.03485 11.6317 3.33332 11.9999 3.33332H14.6439C14.5948 2.90044 14.4048 2.49566 14.1033 2.18132L12.5806 0.608657C12.2475 0.271032 11.8056 0.0622504 11.3333 0.0193129V2.66666Z" fill="#7B61FF"/>
<path d="M9.99984 2.66666V0H7.99984C6.15981 0.00221875 4.66872 1.49331 4.6665 3.33334V9.33334C4.66872 11.1734 6.15981 12.6645 7.99984 12.6667H11.3332C13.1732 12.6645 14.6643 11.1734 14.6665 9.33334V4.66666H11.9998C10.8953 4.66666 9.99984 3.77125 9.99984 2.66666Z" fill="#7B61FF"/>
</svg>
