<svg width="14" height="16" viewBox="0 0 14 16" fill="none" xmlns="http://www.w3.org/2000/svg">
<path d="M8.3335 4.66667V0.306667C8.9502 0.539557 9.51036 0.900874 9.97683 1.36667L12.2995 3.69067C12.7658 4.15659 13.1274 4.7166 13.3602 5.33333H9.00016C8.82335 5.33333 8.65378 5.2631 8.52876 5.13807C8.40373 5.01305 8.3335 4.84348 8.3335 4.66667ZM13.6668 6.99V12.6667C13.6658 13.5504 13.3142 14.3976 12.6894 15.0225C12.0645 15.6474 11.2172 15.9989 10.3335 16H3.66683C2.7831 15.9989 1.93587 15.6474 1.31098 15.0225C0.686084 14.3976 0.334555 13.5504 0.333496 12.6667V3.33333C0.334555 2.4496 0.686084 1.60237 1.31098 0.97748C1.93587 0.352588 2.7831 0.00105857 3.66683 0L6.67683 0C6.7855 0 6.89283 0.00866667 7.00016 0.016V4.66667C7.00016 5.1971 7.21088 5.70581 7.58595 6.08088C7.96102 6.45595 8.46973 6.66667 9.00016 6.66667H13.6508C13.6582 6.774 13.6668 6.88133 13.6668 6.99ZM8.3335 12.6667C8.3335 12.4899 8.26326 12.3203 8.13823 12.1953C8.01321 12.0702 7.84364 12 7.66683 12H4.3335C4.15669 12 3.98712 12.0702 3.86209 12.1953C3.73707 12.3203 3.66683 12.4899 3.66683 12.6667C3.66683 12.8435 3.73707 13.013 3.86209 13.1381C3.98712 13.2631 4.15669 13.3333 4.3335 13.3333H7.66683C7.84364 13.3333 8.01321 13.2631 8.13823 13.1381C8.26326 13.013 8.3335 12.8435 8.3335 12.6667ZM10.3335 10C10.3335 9.82319 10.2633 9.65362 10.1382 9.5286C10.0132 9.40357 9.84364 9.33333 9.66683 9.33333H4.3335C4.15669 9.33333 3.98712 9.40357 3.86209 9.5286C3.73707 9.65362 3.66683 9.82319 3.66683 10C3.66683 10.1768 3.73707 10.3464 3.86209 10.4714C3.98712 10.5964 4.15669 10.6667 4.3335 10.6667H9.66683C9.84364 10.6667 10.0132 10.5964 10.1382 10.4714C10.2633 10.3464 10.3335 10.1768 10.3335 10Z" fill="white"/>
</svg>
