<svg width="109" height="110" viewBox="0 0 109 110" fill="none" xmlns="http://www.w3.org/2000/svg">
<g clip-path="url(#clip0_140_4059)">
<path d="M86.2917 18.4424H81.2958C80.2417 13.2988 77.4528 8.67724 73.399 5.35653C69.3453 2.03581 64.2746 0.219031 59.0417 0.212402L49.9583 0.212402C44.7254 0.219031 39.6547 2.03581 35.601 5.35653C31.5472 8.67724 28.7583 13.2988 27.7042 18.4424H22.7083C16.6879 18.4496 10.9162 20.8527 6.65908 25.1247C2.40201 29.3966 0.00721152 35.1884 0 41.2298L0 54.9023H109V41.2298C108.993 35.1884 106.598 29.3966 102.341 25.1247C98.0838 20.8527 92.3121 18.4496 86.2917 18.4424ZM37.169 18.4424C38.105 15.7858 39.836 13.4842 42.1253 11.8526C44.4146 10.221 47.1504 9.33907 49.9583 9.32739H59.0417C61.8496 9.33907 64.5854 10.221 66.8747 11.8526C69.164 13.4842 70.895 15.7858 71.831 18.4424H37.169Z" fill="#18191D"/>
<path d="M59.0416 68.5751C59.0416 69.7838 58.5631 70.943 57.7114 71.7977C56.8597 72.6524 55.7045 73.1326 54.4999 73.1326C53.2954 73.1326 52.1402 72.6524 51.2885 71.7977C50.4368 70.943 49.9583 69.7838 49.9583 68.5751V64.0176H-6.10352e-05V86.805C0.00715048 92.8464 2.40194 98.6383 6.65902 102.91C10.9161 107.182 16.6879 109.585 22.7083 109.593H86.2916C92.312 109.585 98.0838 107.182 102.341 102.91C106.598 98.6383 108.993 92.8464 109 86.805V64.0176H59.0416V68.5751Z" fill="#18191D"/>
</g>
<defs>
<clipPath id="clip0_140_4059">
<rect width="109" height="109.38" fill="white" transform="translate(0 0.212402)"/>
</clipPath>
</defs>
</svg>
