<svg width="16" height="16" viewBox="0 0 16 16" fill="none" xmlns="http://www.w3.org/2000/svg">
<g clip-path="url(#clip0_1144_7407)">
<path d="M9.23003 11.5113L7.05536 13.686C6.42397 14.3005 5.57603 14.6417 4.69499 14.6358C3.81394 14.6299 2.97065 14.2773 2.34756 13.6544C1.72446 13.0315 1.37168 12.1883 1.36553 11.3073C1.35937 10.4262 1.70035 9.57819 2.31468 8.94663L4.48935 6.76997C4.61436 6.64488 4.68455 6.47525 4.68449 6.2984C4.68443 6.12155 4.61411 5.95198 4.48902 5.82697C4.36393 5.70197 4.1943 5.63177 4.01745 5.63184C3.8406 5.6319 3.67102 5.70221 3.54602 5.8273L1.37202 8.00397C0.493529 8.88289 0.000175859 10.0748 0.00048843 11.3175C0.000801 12.5602 0.494754 13.7518 1.37368 14.6303C2.25261 15.5088 3.44452 16.0021 4.6872 16.0018C5.92988 16.0015 7.12154 15.5076 8.00002 14.6286L10.1747 12.454C10.2961 12.3282 10.3633 12.1598 10.3618 11.985C10.3603 11.8102 10.2902 11.643 10.1666 11.5194C10.043 11.3958 9.87576 11.3257 9.70096 11.3242C9.52616 11.3227 9.35776 11.3899 9.23203 11.5113H9.23003Z" fill="#79AFFF"/>
<path d="M14.6294 1.37401C14.1956 0.937225 13.6794 0.590868 13.1107 0.355013C12.5421 0.119159 11.9323 -0.0015043 11.3167 1.64271e-05C10.7014 -0.00161806 10.0919 0.118735 9.52341 0.354117C8.95493 0.589499 8.43874 0.935239 8.0047 1.37135L5.82669 3.54668C5.7016 3.67168 5.63129 3.84126 5.63123 4.01811C5.63116 4.19496 5.70136 4.36458 5.82636 4.48968C5.95137 4.61477 6.12095 4.68508 6.29779 4.68515C6.47464 4.68521 6.64427 4.61502 6.76936 4.49001L8.94603 2.31535C9.2564 2.00311 9.62562 1.75555 10.0323 1.58699C10.439 1.41843 10.8751 1.33222 11.3154 1.33335C11.9782 1.33357 12.6261 1.5303 13.1772 1.89868C13.7282 2.26706 14.1577 2.79054 14.4113 3.40296C14.6648 4.01537 14.7312 4.68922 14.6018 5.33933C14.4725 5.98943 14.1534 6.5866 13.6847 7.05534L11.51 9.23C11.3849 9.3551 11.3147 9.52476 11.3147 9.70167C11.3147 9.87858 11.3849 10.0482 11.51 10.1733C11.6351 10.2984 11.8048 10.3687 11.9817 10.3687C12.1586 10.3687 12.3283 10.2984 12.4534 10.1733L14.628 8.00001C15.5054 7.12074 15.9983 5.92941 15.9985 4.68729C15.9988 3.44516 15.5064 2.25364 14.6294 1.37401Z" fill="#79AFFF"/>
<path d="M9.52872 5.52845L5.52872 9.52845C5.46505 9.58995 5.41426 9.66351 5.37932 9.74485C5.34438 9.82618 5.32599 9.91366 5.32522 10.0022C5.32445 10.0907 5.34132 10.1785 5.37484 10.2604C5.40836 10.3424 5.45786 10.4168 5.52046 10.4794C5.58305 10.542 5.65749 10.5915 5.73942 10.625C5.82135 10.6585 5.90914 10.6754 5.99765 10.6746C6.08617 10.6738 6.17365 10.6555 6.25499 10.6205C6.33633 10.5856 6.40989 10.5348 6.47139 10.4711L10.4714 6.47112C10.5928 6.34538 10.66 6.17698 10.6585 6.00218C10.657 5.82738 10.5869 5.66018 10.4633 5.53657C10.3397 5.41297 10.1725 5.34285 9.99765 5.34133C9.82286 5.33981 9.65446 5.40701 9.52872 5.52845Z" fill="#79AFFF"/>
</g>
<defs>
<clipPath id="clip0_1144_7407">
<rect width="16" height="16" fill="white"/>
</clipPath>
</defs>
</svg>
