<svg width="49" height="48" viewBox="0 0 49 48" fill="none" xmlns="http://www.w3.org/2000/svg">
<g filter="url(#filter0_d_71_3168)">
<path d="M27.6667 31.3334C27.6667 31.2015 27.7058 31.0726 27.779 30.963C27.8523 30.8534 27.9564 30.7679 28.0782 30.7175C28.2 30.667 28.3341 30.6538 28.4634 30.6795C28.5927 30.7052 28.7115 30.7687 28.8047 30.862C28.898 30.9552 28.9615 31.074 28.9872 31.2033C29.0129 31.3326 28.9997 31.4667 28.9492 31.5885C28.8988 31.7103 28.8133 31.8144 28.7037 31.8877C28.5941 31.9609 28.4652 32 28.3333 32C28.1565 32 27.9869 31.9298 27.8619 31.8048C27.7369 31.6798 27.6667 31.5102 27.6667 31.3334ZM30.69 29.9187C30.815 29.7937 30.8852 29.6242 30.8852 29.4474C30.8852 29.2706 30.815 29.1011 30.69 28.976C30.0649 28.3511 29.2172 28.0001 28.3333 28.0001C27.4494 28.0001 26.6017 28.3511 25.9767 28.976C25.8552 29.1018 25.788 29.2702 25.7895 29.445C25.7911 29.6198 25.8612 29.787 25.9848 29.9106C26.1084 30.0342 26.2756 30.1043 26.4504 30.1058C26.6252 30.1073 26.7936 30.0402 26.9193 29.9187C27.3004 29.5554 27.8068 29.3527 28.3333 29.3527C28.8599 29.3527 29.3662 29.5554 29.7473 29.9187C29.8723 30.0437 30.0419 30.1139 30.2187 30.1139C30.3954 30.1139 30.565 30.0437 30.69 29.9187ZM32.576 28.0334C32.701 27.9084 32.7712 27.7388 32.7712 27.562C32.7712 27.3853 32.701 27.2157 32.576 27.0907C31.4499 25.9671 29.9241 25.3361 28.3333 25.3361C26.7425 25.3361 25.2167 25.9671 24.0907 27.0907C23.9692 27.2164 23.902 27.3848 23.9035 27.5596C23.9051 27.7344 23.9752 27.9016 24.0988 28.0253C24.2224 28.1489 24.3896 28.219 24.5644 28.2205C24.7392 28.222 24.9076 28.1548 25.0333 28.0334C25.9095 27.1599 27.0962 26.6694 28.3333 26.6694C29.5705 26.6694 30.7572 27.1599 31.6333 28.0334C31.7583 28.1584 31.9279 28.2286 32.1047 28.2286C32.2814 28.2286 32.451 28.1584 32.576 28.0334ZM23.148 28.976C22.9622 28.7903 22.8149 28.5698 22.7144 28.3272C22.6138 28.0845 22.5621 27.8244 22.5621 27.5617C22.5621 27.299 22.6138 27.0389 22.7144 26.7963C22.8149 26.5536 22.9622 26.3331 23.148 26.1474C24.4367 24.8623 26.1567 24.1016 27.9744 24.0128C29.7922 23.924 31.5782 24.5134 32.986 25.6667C32.923 24.5852 32.5299 23.5491 31.8598 22.6979C31.1896 21.8468 30.2745 21.2216 29.238 20.9067C29.1236 20.8713 29.0198 20.8082 28.9358 20.7229C28.8519 20.6376 28.7903 20.5329 28.7567 20.418C28.4039 19.2844 27.683 18.301 26.7081 17.6234C25.7333 16.9458 24.5602 16.6129 23.3747 16.6773C22.1893 16.7417 21.0592 17.1999 20.1635 17.9791C19.2679 18.7584 18.6578 19.8142 18.43 20.9794C18.1956 22.1571 18.3845 23.3799 18.9633 24.432C18.2889 24.7802 17.7406 25.3309 17.3953 26.0067C17.0499 26.6825 16.925 27.4496 17.038 28.2C17.2119 29.0719 17.6787 29.858 18.3609 30.4279C19.0432 30.9979 19.8998 31.3174 20.7886 31.3334H25.522C24.4107 30.2314 23.3247 29.1527 23.148 28.976Z" fill="#21CD1E"/>
</g>
<defs>
<filter id="filter0_d_71_3168" x="0.997498" y="0.669434" width="47.9885" height="47.3306" filterUnits="userSpaceOnUse" color-interpolation-filters="sRGB">
<feFlood flood-opacity="0" result="BackgroundImageFix"/>
<feColorMatrix in="SourceAlpha" type="matrix" values="0 0 0 0 0 0 0 0 0 0 0 0 0 0 0 0 0 0 127 0" result="hardAlpha"/>
<feOffset/>
<feGaussianBlur stdDeviation="8"/>
<feComposite in2="hardAlpha" operator="out"/>
<feColorMatrix type="matrix" values="0 0 0 0 0.0707719 0 0 0 0 0.933333 0 0 0 0 0.0505556 0 0 0 0.5 0"/>
<feBlend mode="normal" in2="BackgroundImageFix" result="effect1_dropShadow_71_3168"/>
<feBlend mode="normal" in="SourceGraphic" in2="effect1_dropShadow_71_3168" result="shape"/>
</filter>
</defs>
</svg>
