<svg width="16" height="16" viewBox="0 0 16 16" fill="none" xmlns="http://www.w3.org/2000/svg">
<g clip-path="url(#clip0_1144_1628)">
<path d="M2.52467 13.7707C1.85531 13.7704 1.21345 13.5043 0.740083 13.0311C0.266712 12.5579 0.000529972 11.9161 8.97589e-08 11.2467V4.75339C-0.000124264 4.28721 0.128965 3.83011 0.372932 3.43287C0.6169 3.03562 0.966198 2.71377 1.38204 2.50305C1.79788 2.29234 2.26398 2.201 2.7286 2.23919C3.19321 2.27738 3.63815 2.4436 4.014 2.71939L6.53333 4.56872C6.56626 4.11953 6.71889 3.68736 6.97534 3.31711C7.2318 2.94686 7.58273 2.65204 7.99166 2.46329C8.4006 2.27454 8.85262 2.19874 9.30076 2.24378C9.74889 2.28882 10.1768 2.45304 10.54 2.71939L14.9673 5.96605C15.2865 6.2004 15.546 6.50658 15.7248 6.85982C15.9037 7.21306 15.9969 7.60344 15.9969 7.99938C15.9969 8.39532 15.9037 8.78571 15.7248 9.13895C15.546 9.49219 15.2865 9.79837 14.9673 10.0327L10.54 13.2794C10.1769 13.5457 9.7491 13.7099 9.30107 13.755C8.85303 13.8001 8.4011 13.7244 7.9922 13.5358C7.5833 13.3472 7.23235 13.0526 6.97581 12.6825C6.71927 12.3125 6.56648 11.8805 6.53333 11.4314L4.014 13.2807C3.58239 13.5985 3.06062 13.7701 2.52467 13.7707V13.7707ZM7.19533 9.45405C7.37214 9.45405 7.54171 9.52429 7.66673 9.64931C7.79176 9.77434 7.862 9.9439 7.862 10.1207V11.2467C7.86216 11.4664 7.92315 11.6817 8.03819 11.8688C8.15323 12.0559 8.31784 12.2075 8.51377 12.3067C8.70969 12.406 8.92928 12.4491 9.14819 12.4312C9.3671 12.4133 9.57679 12.3351 9.75399 12.2054L14.1807 8.95872C14.3313 8.84832 14.4537 8.70399 14.5381 8.53744C14.6226 8.37088 14.6666 8.18678 14.6666 8.00005C14.6666 7.81332 14.6226 7.62922 14.5381 7.46266C14.4537 7.29611 14.3313 7.15178 14.1807 7.04138L9.75399 3.79472C9.57679 3.66495 9.3671 3.58679 9.14819 3.56891C8.92928 3.55102 8.70969 3.5941 8.51377 3.69337C8.31784 3.79265 8.15323 3.94424 8.03819 4.13134C7.92315 4.31844 7.86216 4.53374 7.862 4.75339V5.87938C7.86191 6.00252 7.82773 6.12323 7.76323 6.22812C7.69874 6.33301 7.60645 6.418 7.49661 6.47364C7.38676 6.52929 7.26365 6.55343 7.14093 6.54338C7.0182 6.53333 6.90066 6.48949 6.80133 6.41672L3.22533 3.79472C3.04812 3.66495 2.83844 3.58679 2.61953 3.56891C2.40062 3.55102 2.18103 3.5941 1.9851 3.69337C1.78918 3.79265 1.62457 3.94424 1.50953 4.13134C1.39448 4.31844 1.3335 4.53374 1.33333 4.75339V11.2467C1.3335 11.4664 1.39448 11.6817 1.50953 11.8688C1.62457 12.0559 1.78918 12.2075 1.9851 12.3067C2.18103 12.406 2.40062 12.4491 2.61953 12.4312C2.83844 12.4133 3.04812 12.3351 3.22533 12.2054L6.8 9.58338C6.91461 9.49921 7.05313 9.45389 7.19533 9.45405Z" fill="#ABA35B"/>
</g>
<defs>
<clipPath id="clip0_1144_1628">
<rect width="16" height="16" fill="white"/>
</clipPath>
</defs>
</svg>
