<svg width="49" height="36" viewBox="0 0 49 36" fill="none" xmlns="http://www.w3.org/2000/svg">
<g opacity="0.5" filter="url(#filter0_f_74_7694)">
<path fill-rule="evenodd" clip-rule="evenodd" d="M23.4691 30.7148L5.03213 6.13806C4.92615 5.99678 4.72527 5.9691 4.58502 6.07645C4.44669 6.18234 4.41947 6.37989 4.52401 6.51924L22.9647 31.1009C23.8511 32.2824 25.6093 32.2824 26.4957 31.1009L44.9364 6.51924C45.0409 6.37989 45.0137 6.18233 44.8754 6.07645C44.7351 5.9691 44.5343 5.99678 44.4283 6.13806L25.9913 30.7148C25.3581 31.5587 24.1023 31.5587 23.4691 30.7148ZM23.7382 25.0238L9.2323 6.07651C9.14961 5.96851 8.99538 5.94726 8.88657 6.02887C8.77623 6.11163 8.75462 6.26851 8.83846 6.37802L23.3414 25.3215C24.0387 26.2322 25.4218 26.2322 26.1191 25.3215L40.622 6.37802C40.7058 6.26851 40.6842 6.11162 40.5739 6.02887C40.4651 5.94726 40.3108 5.96851 40.2282 6.0765L25.7223 25.0238C25.2242 25.6744 24.2363 25.6744 23.7382 25.0238ZM25.2921 19.5856C24.8918 20.1056 24.1076 20.1056 23.7073 19.5856L21.3006 16.4593C20.7944 15.8017 21.2632 14.8493 22.093 14.8493L26.9063 14.8493C27.7362 14.8493 28.2049 15.8017 27.6987 16.4593L25.2921 19.5856Z" fill="url(#paint0_linear_74_7694)"/>
</g>
<path d="M23.7071 13.6064C24.1075 14.1264 24.8917 14.1264 25.292 13.6064L27.6986 10.4801C28.2048 9.82249 27.736 8.87007 26.9062 8.87007L22.0929 8.87007C21.2631 8.87007 20.7943 9.82249 21.3005 10.4801L23.7071 13.6064Z" fill="#D06538"/>
<path fill-rule="evenodd" clip-rule="evenodd" d="M5.03213 0.158811L23.4691 24.7355C24.1023 25.5795 25.3581 25.5795 25.9913 24.7355L44.4283 0.158807C44.5343 0.0175306 44.7351 -0.0101491 44.8754 0.0971983C45.0137 0.203084 45.0409 0.400637 44.9364 0.539989L26.4957 25.1216C25.6093 26.3032 23.8511 26.3032 22.9647 25.1216L4.52401 0.539995C4.41947 0.400642 4.44669 0.203087 4.58502 0.0972013C4.72527 -0.0101459 4.92615 0.0175348 5.03213 0.158811ZM9.2323 0.0972572L23.7382 19.0446C24.2363 19.6951 25.2242 19.6951 25.7223 19.0446L40.2282 0.0972546C40.3108 -0.0107408 40.4651 -0.031994 40.5739 0.0496154C40.6842 0.132373 40.7058 0.289255 40.622 0.39877L26.1191 19.3422C25.4218 20.253 24.0387 20.253 23.3414 19.3422L8.83846 0.398775C8.75462 0.28926 8.77623 0.132375 8.88657 0.0496177C8.99538 -0.0319914 9.14961 -0.0107383 9.2323 0.0972572Z" fill="url(#paint1_linear_74_7694)"/>
<defs>
<filter id="filter0_f_74_7694" x="0.460449" y="1.97925" width="48.5396" height="34.0078" filterUnits="userSpaceOnUse" color-interpolation-filters="sRGB">
<feFlood flood-opacity="0" result="BackgroundImageFix"/>
<feBlend mode="normal" in="SourceGraphic" in2="BackgroundImageFix" result="shape"/>
<feGaussianBlur stdDeviation="2" result="effect1_foregroundBlur_74_7694"/>
</filter>
<linearGradient id="paint0_linear_74_7694" x1="25.0021" y1="31.9871" x2="25.0021" y2="5.88152" gradientUnits="userSpaceOnUse">
<stop stop-color="#ABB3BC"/>
<stop offset="1" stop-color="#ABB3BC" stop-opacity="0"/>
</linearGradient>
<linearGradient id="paint1_linear_74_7694" x1="25.0021" y1="26.0078" x2="25.0021" y2="-0.0977266" gradientUnits="userSpaceOnUse">
<stop stop-color="#ABB3BC"/>
<stop offset="1" stop-color="#ABB3BC" stop-opacity="0"/>
</linearGradient>
</defs>
</svg>
