<svg width="49" height="36" viewBox="0 0 49 36" fill="none" xmlns="http://www.w3.org/2000/svg">
<g opacity="0.5" filter="url(#filter0_f_78_5150)">
<path fill-rule="evenodd" clip-rule="evenodd" d="M23.4691 5.27227L5.03213 29.849C4.92615 29.9903 4.72527 30.018 4.58502 29.9106C4.44669 29.8047 4.41947 29.6072 4.52401 29.4678L22.9647 4.88617C23.8511 3.70462 25.6093 3.70462 26.4957 4.88617L44.9364 29.4678C45.0409 29.6072 45.0137 29.8047 44.8754 29.9106C44.7351 30.018 44.5343 29.9903 44.4283 29.849L25.9913 5.27228C25.3581 4.42831 24.1023 4.42831 23.4691 5.27227ZM23.7382 10.9632L9.2323 29.9106C9.14961 30.0185 8.99538 30.0398 8.88657 29.9582C8.77623 29.8754 8.75462 29.7186 8.83846 29.609L23.3414 10.6656C24.0387 9.75483 25.4218 9.75483 26.1191 10.6656L40.622 29.609C40.7058 29.7186 40.6842 29.8754 40.5739 29.9582C40.4651 30.0398 40.3108 30.0186 40.2282 29.9106L25.7223 10.9632C25.2242 10.3127 24.2363 10.3127 23.7382 10.9632ZM25.2921 16.4014C24.8918 15.8814 24.1076 15.8814 23.7073 16.4014L21.3006 19.5278C20.7944 20.1853 21.2632 21.1378 22.093 21.1378L26.9063 21.1378C27.7362 21.1378 28.2049 20.1853 27.6987 19.5278L25.2921 16.4014Z" fill="url(#paint0_linear_78_5150)"/>
</g>
<path d="M23.7071 22.3807C24.1075 21.8607 24.8917 21.8607 25.292 22.3807L27.6986 25.507C28.2048 26.1646 27.736 27.117 26.9062 27.117L22.0929 27.117C21.2631 27.117 20.7943 26.1646 21.3005 25.507L23.7071 22.3807Z" fill="#D06538"/>
<path fill-rule="evenodd" clip-rule="evenodd" d="M5.03213 35.8282L23.4691 11.2515C24.1023 10.4076 25.3581 10.4076 25.9913 11.2515L44.4283 35.8283C44.5343 35.9695 44.7351 35.9972 44.8754 35.8899C45.0137 35.784 45.0409 35.5864 44.9364 35.4471L26.4957 10.8654C25.6093 9.68387 23.8511 9.68387 22.9647 10.8654L4.52401 35.4471C4.41947 35.5864 4.44669 35.784 4.58502 35.8899C4.72527 35.9972 4.92615 35.9695 5.03213 35.8282ZM9.2323 35.8898L23.7382 16.9425C24.2363 16.2919 25.2242 16.2919 25.7223 16.9425L40.2282 35.8898C40.3108 35.9978 40.4651 36.0191 40.5739 35.9374C40.6842 35.8547 40.7058 35.6978 40.622 35.5883L26.1191 16.6449C25.4218 15.7341 24.0387 15.7341 23.3414 16.6449L8.83846 35.5883C8.75462 35.6978 8.77623 35.8547 8.88657 35.9374C8.99538 36.0191 9.14961 35.9978 9.2323 35.8898Z" fill="url(#paint1_linear_78_5150)"/>
<defs>
<filter id="filter0_f_78_5150" x="0.460449" y="0" width="48.5396" height="34.0078" filterUnits="userSpaceOnUse" color-interpolation-filters="sRGB">
<feFlood flood-opacity="0" result="BackgroundImageFix"/>
<feBlend mode="normal" in="SourceGraphic" in2="BackgroundImageFix" result="shape"/>
<feGaussianBlur stdDeviation="2" result="effect1_foregroundBlur_78_5150"/>
</filter>
<linearGradient id="paint0_linear_78_5150" x1="25.0021" y1="4" x2="25.0021" y2="30.1055" gradientUnits="userSpaceOnUse">
<stop stop-color="#ABB3BC"/>
<stop offset="1" stop-color="#ABB3BC" stop-opacity="0"/>
</linearGradient>
<linearGradient id="paint1_linear_78_5150" x1="25.0021" y1="9.97925" x2="25.0021" y2="36.0848" gradientUnits="userSpaceOnUse">
<stop stop-color="#ABB3BC"/>
<stop offset="1" stop-color="#ABB3BC" stop-opacity="0"/>
</linearGradient>
</defs>
</svg>
