<svg width="20" height="20" viewBox="0 0 20 20" fill="none" xmlns="http://www.w3.org/2000/svg">
<g clip-path="url(#clip0_1144_10310)">
<path d="M20 15C20 15.5894 19.7659 16.1546 19.3491 16.5713C18.9324 16.9881 18.3671 17.2222 17.7778 17.2222H2.22222C1.63285 17.2222 1.06762 16.9881 0.650874 16.5713C0.234126 16.1546 0 15.5894 0 15V12.7778H20V15Z" fill="#CE2028"/>
<path d="M0 7.22223H20V12.7778H0V7.22223Z" fill="#22408C"/>
<path d="M17.7778 2.77777H2.22222C1.63285 2.77777 1.06762 3.0119 0.650874 3.42864C0.234126 3.84539 0 4.41062 0 4.99999L0 7.22222H20V4.99999C20 4.41062 19.7659 3.84539 19.3491 3.42864C18.9324 3.0119 18.3671 2.77777 17.7778 2.77777Z" fill="#EEEEEE"/>
</g>
<defs>
<clipPath id="clip0_1144_10310">
<rect width="20" height="20" fill="white"/>
</clipPath>
</defs>
</svg>
