<svg width="16" height="16" viewBox="0 0 16 16" fill="none" xmlns="http://www.w3.org/2000/svg">
<circle cx="8" cy="8" r="8" fill="white"/>
<g clip-path="url(#clip0_1144_7315)">
<path d="M8.966 4C9.37272 4.0004 9.76267 4.16214 10.0503 4.44974C10.3379 4.73733 10.4996 5.12728 10.5 5.534C10.5 5.66661 10.5527 5.79378 10.6465 5.88755C10.7402 5.98132 10.8674 6.034 11 6.034C11.1326 6.034 11.2598 5.98132 11.3536 5.88755C11.4473 5.79378 11.5 5.66661 11.5 5.534V5.5C11.5 5.4905 11.5 5.482 11.5 5.4725C11.4833 4.81136 11.2091 4.18289 10.7357 3.72103C10.2624 3.25916 9.62735 3.00044 8.966 3H8.5V2.5C8.5 2.36739 8.44732 2.24021 8.35356 2.14645C8.25979 2.05268 8.13261 2 8 2C7.86739 2 7.74022 2.05268 7.64645 2.14645C7.55268 2.24021 7.5 2.36739 7.5 2.5V3H7.034C6.43266 3.00064 5.85115 3.21512 5.3934 3.60509C4.93565 3.99506 4.6315 4.53511 4.53533 5.12871C4.43915 5.72231 4.55721 6.33077 4.8684 6.84533C5.17959 7.35989 5.66363 7.74701 6.234 7.9375L7.5 8.36V12H7.034C6.62728 11.9996 6.23733 11.8379 5.94974 11.5503C5.66214 11.2627 5.5004 10.8727 5.5 10.466C5.5 10.3334 5.44732 10.2062 5.35355 10.1124C5.25979 10.0187 5.13261 9.966 5 9.966C4.86739 9.966 4.74022 10.0187 4.64645 10.1124C4.55268 10.2062 4.5 10.3334 4.5 10.466V10.5C4.5 10.5095 4.5 10.518 4.5 10.5275C4.51669 11.1886 4.79093 11.8171 5.26428 12.279C5.73763 12.7408 6.37266 12.9996 7.034 13H7.5V13.5C7.5 13.6326 7.55268 13.7598 7.64645 13.8535C7.74022 13.9473 7.86739 14 8 14C8.13261 14 8.25979 13.9473 8.35356 13.8535C8.44732 13.7598 8.5 13.6326 8.5 13.5V13H8.966C9.56735 12.9994 10.1489 12.7849 10.6066 12.3949C11.0644 12.0049 11.3685 11.4649 11.4647 10.8713C11.5609 10.2777 11.4428 9.66923 11.1316 9.15467C10.8204 8.64011 10.3364 8.25299 9.766 8.0625L8.5 7.64V4H8.966ZM9.451 9.0105C9.79672 9.12556 10.0902 9.35992 10.2789 9.67162C10.4675 9.98332 10.5391 10.352 10.4808 10.7117C10.4224 11.0713 10.238 11.3984 9.96042 11.6345C9.68287 11.8706 9.33036 12.0001 8.966 12H8.5V8.6935L9.451 9.0105ZM7.5 7.3065L6.55 6.9895C6.20437 6.87446 5.91096 6.64018 5.72227 6.32859C5.53358 6.017 5.46193 5.64843 5.52015 5.28884C5.57837 4.92925 5.76265 4.60211 6.04002 4.36597C6.31738 4.12983 6.66973 4.0001 7.034 4H7.5V7.3065Z" fill="#004D95"/>
</g>
<defs>
<clipPath id="clip0_1144_7315">
<rect width="12" height="12" fill="white" transform="translate(2 2)"/>
</clipPath>
</defs>
</svg>
