<svg width="16" height="16" viewBox="0 0 16 16" fill="none" xmlns="http://www.w3.org/2000/svg">
<path d="M15.4128 0.587969C15.1738 0.346054 14.8765 0.169872 14.5495 0.0764462C14.2225 -0.0169797 13.8769 -0.0244919 13.5462 0.0546353L2.8795 2.3013C2.26522 2.38555 1.68666 2.63962 1.20897 3.03491C0.731284 3.4302 0.373445 3.95101 0.175753 4.53868C-0.0219392 5.12635 -0.0516323 5.75754 0.0900176 6.36118C0.231668 6.96482 0.539034 7.51691 0.977503 7.9553L2.12284 9.09997C2.18483 9.16194 2.23399 9.23553 2.2675 9.31652C2.30102 9.39751 2.31824 9.48432 2.31817 9.57197V11.684C2.31964 11.9809 2.388 12.2737 2.51817 12.5406L2.51284 12.5453L2.53017 12.5626C2.72551 12.9554 3.04456 13.273 3.43817 13.4666L3.4555 13.484L3.46017 13.4786C3.72708 13.6088 4.01988 13.6772 4.31684 13.6786H6.42884C6.60554 13.6785 6.77507 13.7485 6.90017 13.8733L8.04484 15.018C8.35185 15.3284 8.71727 15.575 9.12002 15.7435C9.52278 15.912 9.95491 15.9992 10.3915 16C10.7553 15.9995 11.1167 15.9401 11.4615 15.824C12.0438 15.6328 12.5611 15.2826 12.955 14.8131C13.3489 14.3436 13.6038 13.7733 13.6908 13.1666L15.9408 2.47664C16.0241 2.14306 16.0192 1.79358 15.9266 1.46248C15.834 1.13137 15.657 0.830015 15.4128 0.587969ZM3.06684 8.15864L1.92084 7.01397C1.65398 6.75354 1.46695 6.4224 1.38169 6.05941C1.29644 5.69641 1.31649 5.31663 1.4395 4.96464C1.55877 4.60352 1.77924 4.28425 2.0747 4.04481C2.37016 3.80537 2.72818 3.65583 3.10617 3.61397L13.6668 1.39064L3.65017 11.4086V9.57197C3.65118 9.30953 3.60014 9.04949 3.50002 8.8069C3.39989 8.5643 3.25266 8.34397 3.06684 8.15864ZM12.3808 12.9386C12.3296 13.3069 12.1768 13.6535 11.9396 13.9397C11.7023 14.2259 11.39 14.4403 11.0376 14.5589C10.6852 14.6774 10.3068 14.6954 9.94479 14.6108C9.58278 14.5262 9.25151 14.3424 8.98817 14.08L7.8415 12.9333C7.65642 12.7472 7.43626 12.5996 7.19378 12.4992C6.9513 12.3987 6.69131 12.3473 6.42884 12.348H4.59217L14.6102 2.3333L12.3808 12.9386Z" fill="white"/>
</svg>
