<svg width="20" height="20" viewBox="0 0 20 20" fill="none" xmlns="http://www.w3.org/2000/svg">
<path d="M10 0.833518C7.67014 0.828438 5.42576 1.71073 3.72305 3.30105C2.02035 4.89138 0.98711 7.07039 0.833344 9.39518L5.76501 11.421C5.89975 11.3315 6.0443 11.2577 6.19584 11.201C6.52825 11.0583 6.88861 10.9925 7.25001 11.0085L9.48668 7.74518C9.48668 7.05625 9.69097 6.38278 10.0737 5.80995C10.4565 5.23712 11.0005 4.79065 11.637 4.527C12.2735 4.26336 12.9739 4.19438 13.6496 4.32878C14.3253 4.46319 14.9459 4.79494 15.4331 5.2821C15.9203 5.76925 16.252 6.38992 16.3864 7.06562C16.5208 7.74132 16.4518 8.4417 16.1882 9.0782C15.9245 9.71469 15.4781 10.2587 14.9052 10.6415C14.3324 11.0242 13.6589 11.2285 12.97 11.2285H12.8967L9.67918 13.5202C9.69383 14.1494 9.47429 14.7616 9.06313 15.2381C8.65198 15.7146 8.0785 16.0214 7.45394 16.0991C6.82938 16.1767 6.19824 16.0196 5.68293 15.6583C5.16762 15.297 4.80486 14.7572 4.66501 14.1435L1.20918 12.6769C1.70455 14.2994 2.64048 15.7526 3.91277 16.8748C5.18507 17.997 6.74382 18.7441 8.41552 19.033C10.0872 19.3218 11.8063 19.1411 13.3814 18.5109C14.9565 17.8808 16.3258 16.8259 17.3369 15.4636C18.3481 14.1014 18.9613 12.4853 19.1085 10.7952C19.2556 9.10513 18.9308 7.40737 18.1703 5.8909C17.4098 4.37444 16.2434 3.09876 14.8009 2.20587C13.3585 1.31298 11.6965 0.837899 10 0.833518Z" fill="#79AFFF"/>
</svg>
