<svg width="36" height="36" viewBox="0 0 36 36" fill="none" xmlns="http://www.w3.org/2000/svg">
<path d="M12.315 25.98L10.5 25.2C10.7714 25.756 11.1983 26.2213 11.729 26.5393C12.2598 26.8573 12.8714 27.0144 13.4897 26.9915C14.108 26.9685 14.7063 26.7666 15.212 26.4102C15.7177 26.0537 16.109 25.5581 16.3385 24.9835C16.5679 24.4089 16.6256 23.7801 16.5045 23.1733C16.3834 22.5666 16.0887 22.0081 15.6563 21.5656C15.2239 21.1231 14.6723 20.8157 14.0685 20.6807C13.4647 20.5457 12.8347 20.5889 12.255 20.805L14.175 21.6C14.7558 21.8427 15.2165 22.3062 15.4556 22.8885C15.6947 23.4708 15.6927 24.1242 15.45 24.705C15.2073 25.2858 14.7439 25.7465 14.1616 25.9856C13.5793 26.2247 12.9258 26.2227 12.345 25.98H12.315Z" fill="white"/>
<path d="M18 3.00001C14.1875 2.99169 10.5149 4.43544 7.72862 7.03779C4.94238 9.64014 3.25162 13.2058 3 17.01L11.07 20.325C11.2905 20.1785 11.527 20.0577 11.775 19.965C12.3189 19.7314 12.9086 19.6237 13.5 19.65L17.16 14.31C17.16 13.1827 17.4943 12.0806 18.1206 11.1433C18.7469 10.2059 19.6372 9.47531 20.6787 9.04389C21.7202 8.61247 22.8663 8.49959 23.972 8.71953C25.0777 8.93947 26.0933 9.48234 26.8905 10.2795C27.6877 11.0767 28.2305 12.0923 28.4505 13.198C28.6704 14.3037 28.5575 15.4498 28.1261 16.4913C27.6947 17.5328 26.9641 18.4231 26.0268 19.0494C25.0894 19.6757 23.9874 20.01 22.86 20.01H22.74L17.475 23.76C17.499 24.7896 17.1397 25.7914 16.4669 26.5711C15.7941 27.3509 14.8557 27.853 13.8337 27.98C12.8117 28.1071 11.7789 27.85 10.9357 27.2588C10.0924 26.6675 9.49884 25.7841 9.27 24.78L3.615 22.38C4.42562 25.0351 5.95713 27.4131 8.03907 29.2494C10.121 31.0857 12.6717 32.3082 15.4072 32.7809C18.1427 33.2536 20.9557 32.9579 23.5332 31.9267C26.1106 30.8955 28.3513 29.1693 30.0059 26.9402C31.6604 24.7111 32.664 22.0666 32.9047 19.301C33.1455 16.5354 32.6141 13.7572 31.3696 11.2757C30.1252 8.79424 28.2165 6.70677 25.8561 5.24567C23.4956 3.78457 20.776 3.00717 18 3.00001Z" fill="white"/>
<path d="M26.685 14.25C26.6939 13.4976 26.479 12.7595 26.0674 12.1295C25.6559 11.4995 25.0664 11.0061 24.3737 10.712C23.6811 10.4178 22.9167 10.3362 22.1776 10.4775C21.4385 10.6188 20.7581 10.9767 20.2229 11.5056C19.6876 12.0345 19.3217 12.7106 19.1716 13.4479C19.0214 14.1853 19.0939 14.9506 19.3798 15.6467C19.6657 16.3428 20.152 16.9382 20.777 17.3572C21.402 17.7762 22.1375 18 22.89 18C23.8876 17.9962 24.8439 17.6013 25.5534 16.9001C26.263 16.199 26.6693 15.2475 26.685 14.25ZM20.055 14.25C20.058 13.687 20.2276 13.1374 20.5426 12.6707C20.8576 12.204 21.3037 11.8411 21.8247 11.6277C22.3457 11.4143 22.9183 11.36 23.4702 11.4716C24.022 11.5833 24.5284 11.8559 24.9255 12.255C25.3226 12.6542 25.5925 13.1621 25.7013 13.7145C25.81 14.2669 25.7527 14.8392 25.5366 15.3591C25.3205 15.879 24.9552 16.3232 24.4868 16.6357C24.0185 16.9482 23.468 17.115 22.905 17.115C22.5282 17.115 22.1551 17.0403 21.8074 16.8952C21.4596 16.7501 21.1441 16.5375 20.8791 16.2697C20.614 16.0019 20.4047 15.6841 20.2633 15.3349C20.1218 14.9856 20.051 14.6118 20.055 14.235V14.25Z" fill="white"/>
</svg>
