<svg width="14" height="16" viewBox="0 0 14 16" fill="none" xmlns="http://www.w3.org/2000/svg">
<path d="M9.66664 10.6667C9.66664 10.8435 9.5964 11.013 9.47138 11.1381C9.34635 11.2631 9.17679 11.3333 8.99997 11.3333H7.66664V12.6667C7.66664 12.8435 7.5964 13.013 7.47138 13.1381C7.34635 13.2631 7.17678 13.3333 6.99997 13.3333C6.82316 13.3333 6.65359 13.2631 6.52857 13.1381C6.40355 13.013 6.33331 12.8435 6.33331 12.6667V11.3333H4.99997C4.82316 11.3333 4.65359 11.2631 4.52857 11.1381C4.40355 11.013 4.33331 10.8435 4.33331 10.6667C4.33331 10.4898 4.40355 10.3203 4.52857 10.1953C4.65359 10.0702 4.82316 9.99999 4.99997 9.99999H6.33331V8.66666C6.33331 8.48984 6.40355 8.32028 6.52857 8.19525C6.65359 8.07023 6.82316 7.99999 6.99997 7.99999C7.17678 7.99999 7.34635 8.07023 7.47138 8.19525C7.5964 8.32028 7.66664 8.48984 7.66664 8.66666V9.99999H8.99997C9.17679 9.99999 9.34635 10.0702 9.47138 10.1953C9.5964 10.3203 9.66664 10.4898 9.66664 10.6667ZM13.6666 6.98999V12.6667C13.6656 13.5504 13.3141 14.3976 12.6892 15.0225C12.0643 15.6474 11.217 15.9989 10.3333 16H3.66664C2.78291 15.9989 1.93568 15.6474 1.31079 15.0225C0.685895 14.3976 0.334366 13.5504 0.333307 12.6667V3.33332C0.334366 2.44959 0.685895 1.60236 1.31079 0.977469C1.93568 0.352577 2.78291 0.00104723 3.66664 -1.13371e-05H6.67664C7.28972 -0.00158929 7.89703 0.11838 8.46346 0.352961C9.02988 0.587542 9.54419 0.932081 9.97664 1.36666L12.2993 3.69066C12.7341 4.12282 13.0789 4.63696 13.3136 5.20331C13.5483 5.76965 13.6683 6.37694 13.6666 6.98999ZM9.03397 2.30932C8.82416 2.1061 8.5886 1.93127 8.33331 1.78932V4.66666C8.33331 4.84347 8.40355 5.01304 8.52857 5.13806C8.65359 5.26308 8.82316 5.33332 8.99997 5.33332H11.8773C11.7353 5.07811 11.5602 4.84275 11.3566 4.63332L9.03397 2.30932ZM12.3333 6.98999C12.3333 6.87999 12.312 6.77466 12.302 6.66666H8.99997C8.46954 6.66666 7.96083 6.45594 7.58576 6.08087C7.21069 5.7058 6.99997 5.19709 6.99997 4.66666V1.36466C6.89197 1.35466 6.78597 1.33332 6.67664 1.33332H3.66664C3.13621 1.33332 2.6275 1.54404 2.25243 1.91911C1.87735 2.29418 1.66664 2.80289 1.66664 3.33332V12.6667C1.66664 13.1971 1.87735 13.7058 2.25243 14.0809C2.6275 14.4559 3.13621 14.6667 3.66664 14.6667H10.3333C10.8637 14.6667 11.3724 14.4559 11.7475 14.0809C12.1226 13.7058 12.3333 13.1971 12.3333 12.6667V6.98999Z" fill="#717380"/>
</svg>
