<svg width="14" height="16" viewBox="0 0 14 16" fill="none" xmlns="http://www.w3.org/2000/svg">
<path d="M8.33334 4.66666V0.306659C8.95004 0.539549 9.5102 0.900867 9.97667 1.36666L12.2993 3.69066C12.7657 4.15658 13.1273 4.71659 13.36 5.33333H9C8.82319 5.33333 8.65362 5.26309 8.5286 5.13806C8.40357 5.01304 8.33334 4.84347 8.33334 4.66666ZM13.6667 6.98999V12.6667C13.6656 13.5504 13.3141 14.3976 12.6892 15.0225C12.0643 15.6474 11.2171 15.9989 10.3333 16H3.66667C2.78294 15.9989 1.93571 15.6474 1.31082 15.0225C0.685925 14.3976 0.334395 13.5504 0.333337 12.6667V3.33333C0.334395 2.4496 0.685925 1.60236 1.31082 0.977472C1.93571 0.35258 2.78294 0.00105094 3.66667 -7.62939e-06L6.67667 -7.62939e-06C6.78534 -7.62939e-06 6.89267 0.00865904 7 0.0159924V4.66666C7 5.19709 7.21072 5.7058 7.58579 6.08087C7.96086 6.45595 8.46957 6.66666 9 6.66666H13.6507C13.658 6.77399 13.6667 6.88133 13.6667 6.98999ZM9.66667 11.3333C9.66667 11.1565 9.59643 10.9869 9.47141 10.8619C9.34638 10.7369 9.17682 10.6667 9 10.6667H7.66667V9.33333C7.66667 9.15652 7.59643 8.98695 7.47141 8.86192C7.34638 8.7369 7.17681 8.66666 7 8.66666C6.82319 8.66666 6.65362 8.7369 6.5286 8.86192C6.40357 8.98695 6.33334 9.15652 6.33334 9.33333V10.6667H5C4.82319 10.6667 4.65362 10.7369 4.5286 10.8619C4.40357 10.9869 4.33334 11.1565 4.33334 11.3333C4.33334 11.5101 4.40357 11.6797 4.5286 11.8047C4.65362 11.9298 4.82319 12 5 12H6.33334V13.3333C6.33334 13.5101 6.40357 13.6797 6.5286 13.8047C6.65362 13.9298 6.82319 14 7 14C7.17681 14 7.34638 13.9298 7.47141 13.8047C7.59643 13.6797 7.66667 13.5101 7.66667 13.3333V12H9C9.17682 12 9.34638 11.9298 9.47141 11.8047C9.59643 11.6797 9.66667 11.5101 9.66667 11.3333Z" fill="#ED174A"/>
</svg>
