<svg width="16" height="16" viewBox="0 0 16 16" fill="none" xmlns="http://www.w3.org/2000/svg">
<g clip-path="url(#clip0_1138_402)">
<path d="M13.8667 2.86201C13.7395 2.74865 13.5738 2.68828 13.4035 2.69328C13.2332 2.69829 13.0713 2.76829 12.951 2.88892C12.8307 3.00956 12.7612 3.17166 12.7567 3.34196C12.7521 3.51226 12.813 3.67783 12.9267 3.80467C14.0375 4.91833 14.6613 6.42707 14.6613 8.00001C14.6613 9.57295 14.0375 11.0817 12.9267 12.1953C12.859 12.2557 12.8043 12.3292 12.766 12.4114C12.7277 12.4936 12.7066 12.5828 12.7039 12.6734C12.7013 12.7641 12.7171 12.8543 12.7505 12.9386C12.7839 13.0229 12.8342 13.0995 12.8982 13.1637C12.9623 13.2279 13.0387 13.2784 13.1229 13.3121C13.2072 13.3457 13.2974 13.3618 13.388 13.3594C13.4787 13.357 13.5679 13.3361 13.6502 13.2981C13.7325 13.26 13.8062 13.2055 13.8667 13.138C15.2275 11.7743 15.9917 9.9265 15.9917 8.00001C15.9917 6.07351 15.2275 4.2257 13.8667 2.86201Z" fill="#E6E6EA"/>
<path d="M12.0619 4.862C12.0004 4.79833 11.9268 4.74754 11.8455 4.7126C11.7642 4.67766 11.6767 4.65927 11.5882 4.6585C11.4997 4.65773 11.4119 4.6746 11.3299 4.70812C11.248 4.74164 11.1736 4.79114 11.111 4.85374C11.0484 4.91633 10.9989 4.99077 10.9654 5.0727C10.9318 5.15463 10.915 5.24242 10.9157 5.33094C10.9165 5.41946 10.9349 5.50693 10.9698 5.58827C11.0048 5.66961 11.0556 5.74317 11.1192 5.80467C11.7003 6.38751 12.0267 7.17697 12.0267 8C12.0267 8.82303 11.7003 9.61248 11.1192 10.1953C11.0556 10.2568 11.0048 10.3304 10.9698 10.4117C10.9349 10.4931 10.9165 10.5805 10.9157 10.6691C10.915 10.7576 10.9318 10.8454 10.9654 10.9273C10.9989 11.0092 11.0484 11.0837 11.111 11.1463C11.1736 11.2088 11.248 11.2583 11.3299 11.2919C11.4119 11.3254 11.4997 11.3423 11.5882 11.3415C11.6767 11.3407 11.7642 11.3223 11.8455 11.2874C11.9268 11.2524 12.0004 11.2017 12.0619 11.138C12.8928 10.305 13.3594 9.17652 13.3594 8C13.3594 6.82347 12.8928 5.69497 12.0619 4.862Z" fill="#E6E6EA"/>
<path d="M9.21267 0.137995C7.18702 0.518212 5.38486 1.66213 4.17867 3.33333H3.33333C2.4496 3.33439 1.60237 3.68592 0.97748 4.31081C0.352588 4.9357 0.00105857 5.78293 0 6.66666L0 9.33333C0.00105857 10.2171 0.352588 11.0643 0.97748 11.6892C1.60237 12.3141 2.4496 12.6656 3.33333 12.6667H4.17933C5.38518 14.3379 7.18716 15.4819 9.21267 15.862C9.30879 15.8797 9.40764 15.876 9.50219 15.8513C9.59675 15.8265 9.6847 15.7813 9.75982 15.7187C9.83495 15.6562 9.8954 15.5779 9.93691 15.4894C9.97841 15.4009 9.99995 15.3044 10 15.2067V0.793328C9.99995 0.695586 9.97841 0.59905 9.93691 0.510558C9.8954 0.422066 9.83495 0.343783 9.75982 0.281254C9.6847 0.218725 9.59675 0.173479 9.50219 0.148723C9.40764 0.123966 9.30879 0.120304 9.21267 0.137995Z" fill="#E6E6EA"/>
</g>
<defs>
<clipPath id="clip0_1138_402">
<rect width="16" height="16" fill="white"/>
</clipPath>
</defs>
</svg>
