<svg width="10" height="16" viewBox="0 0 10 16" fill="none" xmlns="http://www.w3.org/2000/svg">
<path d="M9.21267 0.138002C7.18702 0.518218 5.38486 1.66214 4.17867 3.33333H3.33333C2.4496 3.33439 1.60237 3.68592 0.97748 4.31081C0.352588 4.93571 0.00105857 5.78294 0 6.66667L0 9.33333C0.00105857 10.2171 0.352588 11.0643 0.97748 11.6892C1.60237 12.3141 2.4496 12.6656 3.33333 12.6667H4.17933C5.38518 14.3379 7.18716 15.4819 9.21267 15.862C9.30879 15.8797 9.40764 15.876 9.50219 15.8513C9.59675 15.8265 9.6847 15.7813 9.75982 15.7187C9.83495 15.6562 9.8954 15.5779 9.93691 15.4894C9.97841 15.4009 9.99995 15.3044 10 15.2067V0.793335C9.99995 0.695593 9.97841 0.599057 9.93691 0.510565C9.8954 0.422073 9.83495 0.34379 9.75982 0.281261C9.6847 0.218732 9.59675 0.173486 9.50219 0.148729C9.40764 0.123973 9.30879 0.12031 9.21267 0.138002Z" fill="#ED174A"/>
</svg>
