<svg width="341" height="84" viewBox="0 0 341 84" fill="none" xmlns="http://www.w3.org/2000/svg">
<g filter="url(#filter0_d_257_30008)">
<path d="M244.257 25.7656L267.228 58.7823H260.848L237.865 25.7656H244.257Z" fill="#406CCB" style="mix-blend-mode:overlay" shape-rendering="crispEdges"/>
<path d="M268.02 43.1343L278.906 58.7823H273.841L262.955 43.1343H268.02Z" fill="#406CCB" style="mix-blend-mode:overlay" shape-rendering="crispEdges"/>
<path d="M280.233 43.1343L291.119 58.7823H286.043L275.157 43.1343H280.233Z" fill="#406CCB" style="mix-blend-mode:overlay" shape-rendering="crispEdges"/>
<path d="M292.435 43.1343L303.321 58.7823H298.256L287.37 43.1343H292.435Z" fill="#406CCB" style="mix-blend-mode:overlay" shape-rendering="crispEdges"/>
<path d="M304.648 43.1343L315.534 58.7823H310.458L299.572 43.1343H304.648Z" fill="#406CCB" style="mix-blend-mode:overlay" shape-rendering="crispEdges"/>
<path d="M97.2658 25.7656L74.2828 58.7823H80.6631L103.646 25.7656H97.2658Z" fill="#406CCB" style="mix-blend-mode:overlay" shape-rendering="crispEdges"/>
<path d="M73.4911 43.1343L62.605 58.7823H67.6696L78.5557 43.1343H73.4911Z" fill="#406CCB" style="mix-blend-mode:overlay" shape-rendering="crispEdges"/>
<path d="M61.2777 43.1343L50.3916 58.7823H55.4679L66.354 43.1343H61.2777Z" fill="#406CCB" style="mix-blend-mode:overlay" shape-rendering="crispEdges"/>
<path d="M49.076 43.1343L38.1899 58.7823H43.2546L54.1406 43.1343H49.076Z" fill="#406CCB" style="mix-blend-mode:overlay" shape-rendering="crispEdges"/>
<path d="M36.8626 43.1343L25.9766 58.7823H31.0528L41.9389 43.1343H36.8626Z" fill="#406CCB" style="mix-blend-mode:overlay" shape-rendering="crispEdges"/>
<path d="M244.257 25.7656L267.228 58.7823H260.848L237.865 25.7656H244.257Z" fill="#406CCB" style="mix-blend-mode:overlay" shape-rendering="crispEdges"/>
<path d="M268.02 43.1343L278.906 58.7823H273.841L262.955 43.1343H268.02Z" fill="#406CCB" style="mix-blend-mode:overlay" shape-rendering="crispEdges"/>
<path d="M280.233 43.1343L291.119 58.7823H286.043L275.157 43.1343H280.233Z" fill="#406CCB" style="mix-blend-mode:overlay" shape-rendering="crispEdges"/>
<path d="M292.435 43.1343L303.321 58.7823H298.256L287.37 43.1343H292.435Z" fill="#406CCB" style="mix-blend-mode:overlay" shape-rendering="crispEdges"/>
<path d="M304.648 43.1343L315.534 58.7823H310.458L299.572 43.1343H304.648Z" fill="#406CCB" style="mix-blend-mode:overlay" shape-rendering="crispEdges"/>
<path d="M97.2658 25.7656L74.2828 58.7823H80.6631L103.646 25.7656H97.2658Z" fill="#406CCB" style="mix-blend-mode:overlay" shape-rendering="crispEdges"/>
<path d="M73.4911 43.1343L62.605 58.7823H67.6696L78.5557 43.1343H73.4911Z" fill="#406CCB" style="mix-blend-mode:overlay" shape-rendering="crispEdges"/>
<path d="M61.2777 43.1343L50.3916 58.7823H55.4679L66.354 43.1343H61.2777Z" fill="#406CCB" style="mix-blend-mode:overlay" shape-rendering="crispEdges"/>
<path d="M49.076 43.1343L38.1899 58.7823H43.2546L54.1406 43.1343H49.076Z" fill="#406CCB" style="mix-blend-mode:overlay" shape-rendering="crispEdges"/>
<path d="M36.8626 43.1343L25.9766 58.7823H31.0528L41.9389 43.1343H36.8626Z" fill="#406CCB" style="mix-blend-mode:overlay" shape-rendering="crispEdges"/>
</g>
<defs>
<filter id="filter0_d_257_30008" x="0.976562" y="0.765625" width="339.558" height="83.0166" filterUnits="userSpaceOnUse" color-interpolation-filters="sRGB">
<feFlood flood-opacity="0" result="BackgroundImageFix"/>
<feColorMatrix in="SourceAlpha" type="matrix" values="0 0 0 0 0 0 0 0 0 0 0 0 0 0 0 0 0 0 127 0" result="hardAlpha"/>
<feOffset/>
<feGaussianBlur stdDeviation="12.5"/>
<feComposite in2="hardAlpha" operator="out"/>
<feColorMatrix type="matrix" values="0 0 0 0 0.25098 0 0 0 0 0.423529 0 0 0 0 0.796078 0 0 0 1 0"/>
<feBlend mode="normal" in2="BackgroundImageFix" result="effect1_dropShadow_257_30008"/>
<feBlend mode="normal" in="SourceGraphic" in2="effect1_dropShadow_257_30008" result="shape"/>
</filter>
</defs>
</svg>
