<svg width="166" height="115" viewBox="0 0 166 115" fill="none" xmlns="http://www.w3.org/2000/svg">
<g opacity="0.03">
<path d="M80.715 4.328L55.6592 18.6962C55.6592 18.6962 55.5859 18.7385 55.5435 18.6652C55.5435 18.6652 55.5012 18.5918 55.5745 18.5494L80.5456 4.0346C80.6189 3.99224 80.6613 4.0656 80.6613 4.0656C80.746 4.2123 80.715 4.328 80.715 4.328Z" fill="white"/>
<path d="M133.391 53.7236L108.335 68.0917C108.262 68.1341 108.262 68.1341 108.22 68.0607C108.177 67.9874 108.177 67.9874 108.251 67.945L133.222 53.4302C133.295 53.3878 133.484 53.3765 133.527 53.4498C133.496 53.5655 133.465 53.6812 133.391 53.7236Z" fill="white"/>
<path d="M113.457 -20.4437L54.8787 13.2786C54.8787 13.2786 54.8053 13.3209 54.763 13.2475C54.763 13.2475 54.7206 13.1742 54.794 13.1318L113.33 -20.6638C113.403 -20.7062 113.445 -20.6328 113.445 -20.6328C113.488 -20.5594 113.457 -20.4437 113.457 -20.4437Z" fill="white"/>
<path d="M142.385 -30.9839L89.0576 -0.195181C89.0576 -0.195181 88.9842 -0.152828 88.9419 -0.226181C88.9419 -0.226181 88.8995 -0.299539 88.9729 -0.341888L142.301 -31.1307C142.374 -31.173 142.416 -31.0997 142.416 -31.0997C142.459 -31.0263 142.459 -31.0263 142.385 -30.9839Z" fill="white"/>
<path d="M86.7614 19.7133L61.8213 34.1125C61.8213 34.1125 61.748 34.1548 61.7056 34.0815C61.7056 34.0815 61.6633 34.0081 61.7366 33.9658L86.7077 19.4509C86.781 19.4086 86.8234 19.4819 86.8234 19.4819C86.9081 19.6286 86.8347 19.671 86.7614 19.7133Z" fill="white"/>
<path d="M149.039 64.0548L38.8818 127.36C38.8084 127.403 38.6927 127.372 38.6504 127.298C38.608 127.225 38.639 127.109 38.7124 127.067L148.615 63.3213C148.835 63.1942 149.066 63.2562 149.194 63.4763C149.278 63.623 149.185 63.9701 149.039 64.0548Z" fill="white"/>
<path d="M110.722 21.235L0.565006 84.5406C0.491655 84.583 0.375955 84.552 0.333591 84.4786C0.291242 84.4053 0.322244 84.2896 0.395599 84.2472L110.298 20.5015C110.518 20.3745 110.75 20.4365 110.877 20.6565C111.004 20.8766 110.942 21.108 110.722 21.235Z" fill="white"/>
<path d="M120.886 38.8398L10.7291 102.145C10.6557 102.188 10.54 102.157 10.4977 102.083C10.4554 102.01 10.4864 101.894 10.5597 101.852L120.462 38.1063C120.682 37.9792 120.914 38.0412 121.041 38.2613C121.168 38.4813 121.106 38.7127 120.886 38.8398Z" fill="white"/>
<path d="M133.524 -8.55631L46.4731 41.4089C46.3997 41.4512 46.284 41.4202 46.2417 41.3469C46.1993 41.2735 46.2303 41.1578 46.3037 41.1155L133.1 -9.28984C133.32 -9.41689 133.552 -9.35488 133.679 -9.13482C133.806 -8.91477 133.744 -8.68336 133.524 -8.55631Z" fill="white"/>
<path d="M134.1 -6.54173C132.926 -5.86412 131.495 -6.30951 130.86 -7.4098C130.225 -8.5101 130.628 -10.0142 131.728 -10.6495C132.829 -11.2848 134.333 -10.8817 134.968 -9.78143C135.603 -8.68113 135.274 -7.21934 134.1 -6.54173Z" fill="white"/>
<path d="M96.3365 74.9215C94.7961 75.8108 92.8291 75.2838 91.9397 73.7434C91.0504 72.203 91.5774 70.236 93.1178 69.3467C94.6583 68.4573 96.6252 68.9843 97.5146 70.5248C98.4039 72.0652 97.8769 74.0321 96.3365 74.9215Z" fill="white"/>
<path d="M121.301 40.0671C120.494 40.533 119.453 40.254 119.029 39.5204C118.606 38.7869 118.842 37.6722 119.576 37.2487C120.31 36.8252 121.424 37.0619 121.848 37.7954C122.314 38.6023 122.108 39.6013 121.301 40.0671Z" fill="white"/>
<path d="M163.798 23.5517L53.6409 86.8573C53.5675 86.8996 53.4518 86.8686 53.4095 86.7953C53.3671 86.7219 53.3981 86.6062 53.4715 86.5638L163.374 22.8181C163.594 22.6911 163.826 22.7531 163.953 22.9732C164.08 23.1932 164.018 23.4246 163.798 23.5517Z" fill="white"/>
<path d="M164.667 25.3968C163.494 26.0745 161.99 25.6714 161.312 24.4978C160.634 23.3241 161.037 21.82 162.211 21.1424C163.385 20.4648 164.889 20.8678 165.566 22.0414C166.244 23.2151 165.841 24.7192 164.667 25.3968Z" fill="white"/>
<path d="M163.469 1.63771L53.3122 64.9433C53.2388 64.9857 53.1231 64.9547 53.0808 64.8813C53.0384 64.808 53.0694 64.6922 53.1428 64.6499L163.045 0.90418C163.265 0.777128 163.497 0.839133 163.624 1.05919C163.751 1.27925 163.689 1.51066 163.469 1.63771Z" fill="white"/>
<path d="M164.339 3.48289C163.165 4.16049 161.661 3.75746 160.983 2.58381C160.306 1.41016 160.709 -0.0939867 161.882 -0.771593C163.056 -1.4492 164.56 -1.04617 165.238 0.127482C165.915 1.30113 165.512 2.80528 164.339 3.48289Z" fill="white"/>
<path d="M133.73 54.3104C133.29 54.5645 132.711 54.4095 132.457 53.9694C132.203 53.5293 132.358 52.9507 132.798 52.6966C133.238 52.4425 133.817 52.5975 134.071 53.0377C134.294 53.5935 134.097 54.0986 133.73 54.3104Z" fill="white"/>
<path d="M142.809 -30.2504C142.369 -29.9963 141.79 -30.1513 141.536 -30.5914C141.282 -31.0316 141.437 -31.6101 141.877 -31.8642C142.317 -32.1183 142.896 -31.9633 143.15 -31.5232C143.404 -31.083 143.249 -30.5045 142.809 -30.2504Z" fill="white"/>
<path d="M72.5096 23.1492L55.8894 32.647C55.8894 32.647 55.8161 32.6894 55.7737 32.616C55.7737 32.616 55.7314 32.5427 55.8047 32.5003L72.3402 22.8558C72.4135 22.8134 72.4559 22.8868 72.4559 22.8868C72.5829 23.1068 72.5096 23.1492 72.5096 23.1492Z" fill="white"/>
<path d="M96.7721 42.9815L80.1519 52.4793C80.1519 52.4793 80.0786 52.5216 80.0362 52.4483C80.0362 52.4483 79.9939 52.3749 80.0673 52.3326L96.6027 42.688C96.676 42.6457 96.7184 42.719 96.7184 42.719C96.7184 42.719 96.8455 42.9391 96.7721 42.9815Z" fill="white"/>
<path d="M118.551 26.4952L79.5582 48.9099C79.5582 48.9099 79.4849 48.9523 79.4425 48.8789C79.4425 48.8789 79.4002 48.8056 79.4735 48.7632L118.382 26.2018C118.455 26.1594 118.497 26.2328 118.497 26.2328C118.582 26.3795 118.624 26.4528 118.551 26.4952Z" fill="white"/>
<path d="M137.788 19.4966L102.316 39.8785C102.316 39.8785 102.243 39.9209 102.2 39.8475C102.2 39.8475 102.158 39.7742 102.231 39.7318L137.618 19.2032C137.692 19.1609 137.734 19.2342 137.734 19.2342C137.935 19.4119 137.861 19.4543 137.788 19.4966Z" fill="white"/>
<path d="M100.873 53.133L84.2524 62.6308C84.2524 62.6308 84.1791 62.6732 84.1367 62.5998C84.1367 62.5998 84.0944 62.5264 84.1677 62.4841L100.703 52.8395C100.777 52.7972 100.819 52.8705 100.819 52.8705C100.946 53.0906 100.873 53.133 100.873 53.133Z" fill="white"/>
<path d="M81.7572 42.5545L42.5836 64.4868C42.3635 64.6138 42.1321 64.5518 42.0051 64.3318C41.878 64.1117 41.94 63.8803 42.1601 63.7533L80.7408 40.7941C81.1809 40.54 81.8328 40.6526 82.0869 41.0927C82.4257 41.6796 82.2707 42.2581 81.7572 42.5545C81.8305 42.5122 81.8305 42.5122 81.7572 42.5545Z" fill="white"/>
<path d="M123.581 66.0382L50.3208 108.042C50.2474 108.084 50.1317 108.053 50.0894 107.98C50.047 107.906 50.078 107.79 50.1514 107.748L123.157 65.3047C123.377 65.1776 123.609 65.2396 123.736 65.4597C123.821 65.6064 123.801 65.9112 123.581 66.0382Z" fill="white"/>
<path d="M131.971 34.4935L74.042 67.6456C73.9686 67.6879 73.8529 67.6569 73.8106 67.5836C73.7682 67.5102 73.7992 67.3945 73.8726 67.3522L131.548 33.76C131.768 33.6329 131.999 33.6949 132.126 33.915C132.253 34.135 132.191 34.3664 131.971 34.4935Z" fill="white"/>
<path d="M132.271 35.6898C131.537 36.1133 130.538 35.9077 130.072 35.1008C129.649 34.3673 129.855 33.3683 130.661 32.9024C131.395 32.4789 132.394 32.6846 132.86 33.4915C133.283 34.225 133.078 35.224 132.271 35.6898Z" fill="white"/>
<path d="M105.774 -18.8441C106.662 -17.3047 108.631 -16.7772 110.17 -17.666C111.71 -18.5548 112.237 -20.5233 111.348 -22.0628C110.46 -23.6022 108.491 -24.1297 106.952 -23.2409C105.412 -22.3521 104.885 -20.3836 105.774 -18.8441Z" fill="white"/>
<path d="M82.4235 43.5391C81.3965 44.132 80.0504 43.8334 79.4575 42.8064C78.8646 41.7795 79.1633 40.4334 80.1902 39.8405C81.2172 39.2476 82.5633 39.5462 83.1562 40.5732C83.7491 41.6001 83.4504 42.9462 82.4235 43.5391Z" fill="white"/>
<path d="M123.773 66.7097C123.26 67.0062 122.565 66.8202 122.269 66.3067C121.972 65.7932 122.158 65.099 122.672 64.8026C123.185 64.5061 123.88 64.6921 124.176 65.2056C124.472 65.7191 124.244 66.3399 123.773 66.7097Z" fill="white"/>
<path d="M161.165 -3.87816L87.9045 38.1252C87.8311 38.1675 87.7154 38.1365 87.673 38.0632C87.6307 37.9898 87.6617 37.8741 87.7351 37.8318L160.741 -4.61169C160.961 -4.73874 161.193 -4.67674 161.32 -4.45668C161.404 -4.30997 161.385 -4.00521 161.165 -3.87816Z" fill="white"/>
<path d="M161.684 -2.80887C160.877 -2.34301 159.952 -2.59104 159.486 -3.39792C159.02 -4.2048 159.268 -5.13043 160.075 -5.59629C160.882 -6.06214 161.807 -5.81412 162.273 -5.00724C162.697 -4.27371 162.491 -3.27472 161.684 -2.80887Z" fill="white"/>
<path d="M152.112 55.8255L78.8515 97.8288C78.7782 97.8712 78.6625 97.8402 78.6201 97.7668C78.5778 97.6934 78.6088 97.5777 78.6821 97.5354L151.688 55.0919C151.908 54.9649 152.14 55.0269 152.267 55.247C152.394 55.467 152.332 55.6984 152.112 55.8255Z" fill="white"/>
<path d="M152.631 56.8948C151.824 57.3606 150.899 57.1126 150.433 56.3057C149.967 55.4988 150.215 54.5732 151.022 54.1073C151.829 53.6415 152.754 53.8895 153.22 54.6964C153.644 55.4299 153.365 56.4713 152.631 56.8948Z" fill="white"/>
<path d="M151.921 41.2651L78.6606 83.2684C78.5873 83.3107 78.4716 83.2797 78.4292 83.2064C78.3869 83.133 78.4179 83.0173 78.4912 82.975L151.497 40.5315C151.717 40.4045 151.949 40.4665 152.076 40.6865C152.16 40.8333 152.141 41.138 151.921 41.2651Z" fill="white"/>
<path d="M152.367 42.3767C151.56 42.8426 150.634 42.5946 150.169 41.7877C149.703 40.9808 149.951 40.0551 150.758 39.5893C151.564 39.1234 152.49 39.3715 152.956 40.1784C153.453 40.8695 153.174 41.9109 152.367 42.3767Z" fill="white"/>
<path d="M124.642 -11.7421L51.4246 30.3346C51.3513 30.3769 51.2356 30.3459 51.1932 30.2726C51.1509 30.1992 51.1819 30.0835 51.2552 30.0412L124.261 -12.4023C124.481 -12.5293 124.713 -12.4673 124.84 -12.2473C124.924 -12.1005 124.789 -11.8268 124.642 -11.7421Z" fill="white"/>
<path d="M125.131 -10.5571C124.324 -10.0912 123.398 -10.3393 122.933 -11.1461C122.467 -11.953 122.715 -12.8787 123.522 -13.3445C124.328 -13.8104 125.254 -13.5623 125.72 -12.7555C126.143 -12.0219 125.938 -11.0229 125.131 -10.5571Z" fill="white"/>
<path d="M138.042 19.9367C137.749 20.1061 137.401 20.0131 137.232 19.7197C137.063 19.4263 137.156 19.0792 137.449 18.9098C137.742 18.7404 138.09 18.8334 138.259 19.1268C138.428 19.4202 138.335 19.7673 138.042 19.9367Z" fill="white"/>
</g>
</svg>
