<svg width="190" height="42" viewBox="0 0 190 42" fill="none" xmlns="http://www.w3.org/2000/svg">
<path fill-rule="evenodd" clip-rule="evenodd" d="M19.7853 7.15137H14.268L16.1165 11.7304H19.7012V11.9848V25.5985C19.6879 28.1434 18.5138 29.4869 16.3791 29.4869C14.3645 29.4869 13.057 28.2726 13.017 26.1669H7.26674C7.24005 31.4504 11.1358 33.9695 16.0856 33.9695C21.6224 33.9695 25.3981 30.727 25.4114 25.5985V7.1514H19.7853V7.15137Z" fill="#BF343C"/>
<path fill-rule="evenodd" clip-rule="evenodd" d="M19.709 18.9637C20.3138 19.0073 21.7568 18.9114 22.6899 18.1785C22.8523 18.0509 23.0391 17.8723 23.2442 17.6761C23.8576 17.0894 24.6346 16.3462 25.4116 16.3462V20.6651H25.4114L25.4114 25.6094C25.3981 30.7312 21.6224 33.9693 16.0856 33.9693C11.1358 33.9693 7.24005 31.4536 7.26674 26.177H13.017C13.057 28.2799 14.3645 29.4926 16.3791 29.4926C18.5138 29.4926 19.6878 28.1509 19.7012 25.6094V20.8157V20.688L19.7406 20.6651H19.709V18.9637Z" fill="#EA7550"/>
<path fill-rule="evenodd" clip-rule="evenodd" d="M2.30548 0.000942206C2.30548 0.00042184 2.30506 0 2.30454 0H1.01591C0.454836 0 0 0.454836 0 1.01591C0 1.57697 0.454836 2.03181 1.01591 2.03181H2.28823C4.70227 2.12314 6.26828 3.93944 6.75051 4.86407L13.2693 21.0217C13.4798 21.5437 14.0724 21.7977 14.5957 21.5902C15.1233 21.3809 15.3798 20.7823 15.1675 20.2559L8.62039 4.02801L8.60133 3.99021C8.07095 2.6713 5.77407 0.13748 2.30639 0.00188409C2.30589 0.00186432 2.30548 0.00144829 2.30548 0.000942206Z" fill="#F7A65C"/>
<path d="M42.6883 25.4869C42.7014 28.1588 40.8454 29.5595 38.8315 29.5595C36.7122 29.5595 35.3432 28.0939 35.3301 25.7463V14.0473H29.7226V26.732C29.7358 31.3883 32.5 34.2287 36.5674 34.2287C39.6081 34.2287 41.7932 32.6853 42.7014 30.3507H42.912V33.9693H48.2957V14.0473H42.6883V25.4869Z" fill="white"/>
<path d="M52.7811 33.9693H58.3886V14.0473H52.7811V33.9693ZM55.598 11.4793C57.2697 11.4793 58.6387 10.2212 58.6387 8.67772C58.6387 7.14726 57.2697 5.88916 55.598 5.88916C53.9394 5.88916 52.5705 7.14726 52.5705 8.67772C52.5705 10.2212 53.9394 11.4793 55.598 11.4793Z" fill="white"/>
<path d="M72.0157 34.3584C77.3994 34.3584 80.7823 31.2456 81.0456 26.6672H75.754C75.4249 28.7943 74.0033 29.9875 72.0815 29.9875C69.462 29.9875 67.764 27.8215 67.764 24.0083C67.764 20.247 69.4752 18.094 72.0815 18.094C74.1349 18.094 75.4512 19.4299 75.754 21.4143H81.0456C80.8086 16.8099 77.2677 13.7879 71.9893 13.7879C65.8553 13.7879 62.0644 17.9773 62.0644 24.0862C62.0644 30.1432 65.7895 34.3584 72.0157 34.3584Z" fill="white"/>
<path d="M88.0977 41.4401C92.2704 41.4401 94.4818 39.3389 95.627 36.1224L103.485 14.0733L97.5488 14.0473L93.3234 28.6776H93.1128L88.927 14.0473H83.0299L90.2828 34.54L89.9537 35.3831C89.2165 37.2508 87.8081 37.3415 85.8336 36.7449L84.57 40.8694C85.3729 41.2066 86.6761 41.4401 88.0977 41.4401Z" fill="white"/>
<path d="M116.017 33.9693C124.23 33.9693 129.206 28.9629 129.206 20.6621C129.206 12.3872 124.23 7.40666 116.096 7.40666H106.46V33.9693H116.017ZM112.16 29.1574V12.2185H115.793C120.847 12.2185 123.52 14.7607 123.52 20.6621C123.52 26.5894 120.847 29.1574 115.78 29.1574H112.16Z" fill="white"/>
<path d="M133.323 33.9693H138.93V22.6984C138.93 20.247 140.747 18.5609 143.221 18.5609C143.998 18.5609 145.064 18.6906 145.591 18.8592V13.9565C145.091 13.8398 144.393 13.762 143.827 13.762C141.563 13.762 139.707 15.059 138.97 17.5233H138.759V14.0473H133.323V33.9693Z" fill="white"/>
<path d="M156.684 34.3584C162.818 34.3584 166.635 30.221 166.635 24.0862C166.635 17.9124 162.818 13.7879 156.684 13.7879C150.55 13.7879 146.733 17.9124 146.733 24.0862C146.733 30.221 150.55 34.3584 156.684 34.3584ZM156.71 30.0783C153.88 30.0783 152.432 27.5232 152.432 24.0472C152.432 20.5713 153.88 18.0032 156.71 18.0032C159.488 18.0032 160.936 20.5713 160.936 24.0472C160.936 27.5232 159.488 30.0783 156.71 30.0783Z" fill="white"/>
<path d="M170.282 41.4401H175.889V30.7787H176.06C176.837 32.4389 178.535 34.2936 181.799 34.2936C186.406 34.2936 190 30.7009 190 24.0343C190 17.1861 186.248 13.7879 181.812 13.7879C178.43 13.7879 176.81 15.7723 176.06 17.3936H175.81V14.0473H170.282V41.4401ZM175.771 24.0083C175.771 20.4545 177.297 18.1848 180.022 18.1848C182.8 18.1848 184.274 20.5583 184.274 24.0083C184.274 27.4843 182.773 29.8967 180.022 29.8967C177.324 29.8967 175.771 27.5621 175.771 24.0083Z" fill="white"/>
</svg>
