<svg width="428" height="341" viewBox="0 0 428 341" fill="none" xmlns="http://www.w3.org/2000/svg">
<path d="M113.63 270.161L112.4 268.922L119 262.448L120.15 263.607L113.63 270.161ZM105.33 261.169C104.95 260.73 104.58 260.28 104.21 259.83L111.36 253.936C111.7 254.355 112.033 254.775 112.36 255.195L105.33 261.169ZM97.84 251.508C97.5 251.039 97.17 250.559 96.84 250.079L104.47 244.824L105.4 246.163L97.84 251.508ZM91.21 241.238L90.34 239.729L98.34 235.153L99.16 236.572L91.21 241.238ZM85.5 230.478C85.25 229.948 85.01 229.419 84.76 228.899L93.19 225.033C93.41 225.532 93.64 226.032 93.88 226.511L85.5 230.478ZM80.75 219.208C80.55 218.669 80.35 218.119 80.16 217.58L88.89 214.462C89.07 214.972 89.25 215.462 89.44 215.991L80.75 219.208ZM77 207.549C76.84 206.989 76.69 206.43 76.55 205.86L85.55 203.533C85.68 204.062 85.82 204.582 85.97 205.101L77 207.549ZM74.3 195.64C74.1867 195.074 74.0867 194.504 74 193.931L83.13 192.373C83.22 192.912 83.32 193.452 83.41 193.981L74.3 195.64ZM72.63 183.521L72.48 181.773L81.72 181.023C81.72 181.573 81.81 182.112 81.86 182.652L72.63 183.521ZM72 171.342V169.594L81.27 169.644V171.282L72 171.342ZM81.67 159.853L72.43 159.134C72.43 158.554 72.52 157.965 72.57 157.385L81.8 158.224C81.78 158.764 81.73 159.313 81.69 159.853H81.67ZM83.07 148.553L73.93 147.035L74.23 145.306L83.35 146.945C83.26 147.434 83.16 147.974 83.07 148.553ZM85.44 137.374L76.44 135.066C76.58 134.496 76.73 133.937 76.89 133.368L85.83 135.795L85.44 137.374ZM88.78 126.454L80 123.317C80.2 122.767 80.39 122.218 80.6 121.668L89.3 124.855C89.15 125.375 89 125.884 88.78 126.404V126.454ZM93.06 115.854L84.63 112.017C84.87 111.488 85.11 110.958 85.36 110.429L93.75 114.425L93.06 115.854ZM98.25 105.593L90.18 101.037L91.05 99.5188L99.05 104.185L98.25 105.593ZM104.25 95.9022L96.61 90.667L97.61 89.2284L105.19 94.5634L104.25 95.9022ZM111.13 86.7707L104 80.9261L105.13 79.6173L112.22 85.6117C111.87 85.9614 111.52 86.381 111.18 86.8006L111.13 86.7707ZM118.76 78.2785L112.14 71.7945C112.54 71.3849 112.95 70.9653 113.37 70.5557L120 77.1496C119.57 77.5292 119.19 77.9188 118.81 78.3085L118.76 78.2785Z" fill="url(#paint0_linear_257_30012)" style="mix-blend-mode:overlay"/>
<path d="M311.52 270.161L312.75 268.922L306.15 262.448L305 263.607L311.52 270.161ZM319.82 261.169C320.2 260.73 320.57 260.28 320.94 259.83L313.79 253.936C313.45 254.355 313.117 254.775 312.79 255.195L319.82 261.169ZM327.31 251.508C327.65 251.039 327.98 250.559 328.31 250.079L320.68 244.824L319.75 246.163L327.31 251.508ZM333.94 241.238L334.81 239.729L326.81 235.153L325.99 236.572L333.94 241.238ZM339.65 230.478C339.9 229.948 340.14 229.419 340.39 228.899L331.96 225.033C331.74 225.532 331.51 226.032 331.27 226.511L339.65 230.478ZM344.4 219.208C344.6 218.669 344.8 218.119 344.99 217.58L336.26 214.462C336.08 214.972 335.9 215.462 335.71 215.991L344.4 219.208ZM348.15 207.549C348.31 206.989 348.46 206.43 348.6 205.86L339.6 203.533C339.47 204.062 339.33 204.582 339.18 205.101L348.15 207.549ZM350.85 195.64C350.963 195.074 351.063 194.504 351.15 193.931L342.02 192.373C341.93 192.912 341.83 193.452 341.74 193.981L350.85 195.64ZM352.52 183.521L352.67 181.773L343.43 181.023C343.43 181.573 343.34 182.112 343.29 182.652L352.52 183.521ZM353.15 171.342V169.594L343.88 169.644V171.282L353.15 171.342ZM343.48 159.853L352.72 159.134C352.72 158.554 352.63 157.965 352.58 157.385L343.35 158.224C343.37 158.764 343.42 159.313 343.46 159.853H343.48ZM342.08 148.553L351.22 147.035L350.92 145.306L341.8 146.945C341.89 147.434 341.99 147.974 342.08 148.553ZM339.71 137.374L348.71 135.066C348.57 134.496 348.42 133.937 348.26 133.368L339.32 135.795L339.71 137.374ZM336.37 126.454L345.15 123.317C344.95 122.767 344.76 122.218 344.55 121.668L335.85 124.855C336 125.375 336.15 125.884 336.37 126.404V126.454ZM332.09 115.854L340.52 112.017C340.28 111.488 340.04 110.958 339.79 110.429L331.4 114.425L332.09 115.854ZM326.9 105.593L334.97 101.037L334.1 99.5188L326.1 104.185L326.9 105.593ZM320.9 95.9022L328.54 90.667L327.54 89.2284L319.96 94.5634L320.9 95.9022ZM314.02 86.7707L321.15 80.9261L320.02 79.6173L312.93 85.6117C313.28 85.9614 313.63 86.381 313.97 86.8006L314.02 86.7707ZM306.39 78.2785L313.01 71.7945C312.61 71.3849 312.2 70.9653 311.78 70.5557L305.15 77.1496C305.58 77.5292 305.96 77.9188 306.34 78.3085L306.39 78.2785Z" fill="url(#paint1_linear_257_30012)" style="mix-blend-mode:overlay"/>
<path d="M403.44 232.695C415.969 192.779 416.164 150.017 404 109.989L427.15 90.6568C414.608 56.392 394.182 25.551 367.52 0.620117L346.22 30.3426C364.826 48.6208 379.604 70.4171 389.691 94.4604C399.779 118.504 404.974 144.313 404.974 170.383C404.974 196.453 399.779 222.262 389.691 246.305C379.604 270.349 364.826 292.145 346.22 310.423L367.56 340.126C393.662 315.717 413.791 285.635 426.39 252.207L403.44 232.695Z" fill="#141518" style="mix-blend-mode:overlay"/>
<path d="M24.05 232.695C11.5079 192.783 11.2988 150.021 23.45 109.989L0.309998 90.6568C12.8468 56.3916 33.2693 25.5501 59.93 0.620117L81.27 30.3426C62.6637 48.6208 47.8861 70.4171 37.7987 94.4604C27.7114 118.504 22.5162 144.313 22.5162 170.383C22.5162 196.453 27.7114 222.262 37.7987 246.305C47.8861 270.349 62.6637 292.145 81.27 310.423L59.93 340.126C33.8335 315.713 13.705 285.631 1.1 252.207L24.05 232.695Z" fill="#141518" style="mix-blend-mode:overlay"/>
<defs>
<linearGradient id="paint0_linear_257_30012" x1="72.01" y1="170.373" x2="120.16" y2="170.373" gradientUnits="userSpaceOnUse">
<stop stop-color="white" stop-opacity="0.4"/>
<stop offset="1" stop-color="white"/>
</linearGradient>
<linearGradient id="paint1_linear_257_30012" x1="353.14" y1="170.373" x2="304.99" y2="170.373" gradientUnits="userSpaceOnUse">
<stop stop-color="white" stop-opacity="0.4"/>
<stop offset="1" stop-color="white"/>
</linearGradient>
</defs>
</svg>
