<svg width="337" height="270" viewBox="0 0 337 270" fill="none" xmlns="http://www.w3.org/2000/svg">
<g opacity="0.2">
<path d="M71.7138 82.4637C58.7549 106.309 55.1114 134.157 61.4917 160.591L62.9753 160.194C56.6903 134.148 60.2779 106.71 73.0412 83.2118L71.7138 82.4637ZM219.408 39.8888L220.177 38.5523C196.367 25.5059 168.591 21.7985 142.251 28.1514L142.651 29.6404C168.597 23.3942 195.953 27.0468 219.408 39.8888ZM199.191 240.459C225.183 232.795 247.381 215.699 261.465 192.499L260.131 191.725C246.251 214.572 224.39 231.41 198.792 238.97L199.191 240.459ZM136.8 29.6107C110.809 37.276 88.6119 54.371 74.5267 77.5704L75.8371 78.323C89.7181 55.4775 111.579 38.6398 137.176 31.0787L136.8 29.6107ZM273.018 109.847C279.294 135.892 275.706 163.324 262.95 186.821L264.284 187.595C277.247 163.744 280.889 135.89 274.501 109.45L273.018 109.847ZM116.576 230.155L115.808 231.491C139.616 244.547 167.395 248.263 193.74 241.918L193.341 240.429C167.385 246.673 140.019 243.013 116.559 230.159L116.576 230.155ZM64.4472 165.682L62.9636 166.079C70.6635 192.167 87.758 214.471 110.921 228.65L111.689 227.314C88.8766 213.343 72.0385 191.376 64.4472 165.682ZM224.309 42.7446C247.109 56.7195 263.943 78.6769 271.546 104.359L273.03 103.962C265.329 77.8715 248.234 55.5649 225.07 41.3826L224.309 42.7446Z" fill="white" style="mix-blend-mode:overlay"/>
</g>
<path d="M71.7138 82.4637C58.7549 106.309 55.1114 134.157 61.4917 160.591L62.9753 160.194C56.6903 134.148 60.2779 106.71 73.0412 83.2118L71.7138 82.4637ZM219.408 39.8888L220.177 38.5523C196.367 25.5059 168.591 21.7985 142.251 28.1514L142.651 29.6404C168.597 23.3942 195.953 27.0468 219.408 39.8888ZM136.8 29.6107C110.809 37.276 88.6118 54.371 74.5267 77.5704L75.8371 78.323C89.718 55.4775 111.579 38.6398 137.176 31.0787L136.8 29.6107ZM64.4472 165.682L62.9636 166.079C70.6635 192.167 87.758 214.471 110.921 228.65L111.689 227.314C88.8766 213.343 72.0385 191.376 64.4472 165.682ZM224.309 42.7446C247.109 56.7195 263.943 78.6769 271.546 104.359L273.029 103.962C265.329 77.8714 248.234 55.5649 225.07 41.3826L224.309 42.7446Z" fill="url(#paint0_angular_257_30017)" style="mix-blend-mode:overlay"/>
<g opacity="0.05">
<path d="M82.33 225.21C104.674 246.49 134.14 258.709 165 259.488V257.74C134.594 256.97 105.56 244.934 83.54 223.971L82.33 225.21ZM79 50.2621L77.76 49.0233C56.4647 71.3549 44.2457 100.802 43.48 131.637H45.23C45.9972 101.267 58.0328 72.2649 79 50.2621ZM293 131.637C292.226 100.798 279.996 71.3503 258.69 49.0233L257.45 50.2621C278.428 72.2603 290.475 101.263 291.25 131.637H293ZM43.48 138.061C44.2557 168.899 56.4854 198.346 77.79 220.674L79 219.456C58.0234 197.456 45.9772 168.455 45.2 138.081L43.48 138.061ZM171.45 11.9476C201.851 12.727 230.879 24.7616 252.9 45.7163L254.14 44.4775C231.792 23.191 202.317 10.9723 171.45 10.1992V11.9476ZM257.45 219.436L258.69 220.674C279.995 198.346 292.224 168.899 293 138.061H291.25C290.478 168.442 278.431 197.451 257.45 219.456V219.436ZM171.45 257.74V259.488C202.317 258.715 231.792 246.497 254.14 225.21L252.9 223.971C230.884 244.934 201.853 256.97 171.45 257.74ZM83.57 45.7163C105.587 24.7678 134.606 12.7338 165 11.9476V10.1992C134.13 10.9718 104.651 23.1903 82.3 44.4775L83.57 45.7163Z" fill="white" style="mix-blend-mode:overlay"/>
</g>
<path opacity="0.4" d="M266.08 18.9814C282.954 33.2072 296.518 50.9406 305.824 70.9441C315.131 90.9476 319.956 112.739 319.962 134.798C319.969 156.857 315.157 178.651 305.863 198.66C296.569 218.669 283.016 236.411 266.15 250.647" stroke="#24262C" stroke-linecap="round" stroke-linejoin="round"/>
<path opacity="0.4" d="M69.8824 18.9814C53.0081 33.2072 39.4444 50.9406 30.1379 70.9441C20.8315 90.9476 16.0066 112.739 15.9999 134.798C15.9933 156.857 20.805 178.651 30.0994 198.66C39.3937 218.669 52.9467 236.411 69.8124 250.647" stroke="#24262C" stroke-linecap="round" stroke-linejoin="round"/>
<path opacity="0.4" d="M211.37 194.479L245.7 249.588H265.34L274.84 264.574C294.05 248.843 309.527 229.048 320.154 206.618C330.781 184.187 336.293 159.68 336.293 134.864C336.293 110.048 330.781 85.5411 320.154 63.1108C309.527 40.6805 294.05 20.8858 274.84 5.1543L265.34 20.1404H245.7L211.37 75.2594" stroke="#24262C" stroke-linecap="round" stroke-linejoin="round"/>
<path opacity="0.4" d="M125.4 75.2594L91.07 20.1604H71.43L61.92 5.1543C42.7197 20.8881 27.2521 40.6813 16.6317 63.1076C6.01126 85.5338 0.502563 110.035 0.502563 134.844C0.502563 159.654 6.01126 184.155 16.6317 206.581C27.2521 229.007 42.7197 248.8 61.92 264.534L71.43 249.548H91.07L125.4 194.479" stroke="#24262C" stroke-linecap="round" stroke-linejoin="round"/>
<defs>
<radialGradient id="paint0_angular_257_30017" cx="0" cy="0" r="1" gradientUnits="userSpaceOnUse" gradientTransform="translate(173.5 69.0945) rotate(89.7345) scale(107.901 108.521)">
<stop offset="0.0169378" stop-color="#121315" stop-opacity="0"/>
<stop offset="0.195815" stop-color="#121315" stop-opacity="0"/>
<stop offset="0.380662" stop-color="#121315" stop-opacity="0"/>
<stop offset="0.388483" stop-color="#FFD439"/>
<stop offset="0.654746" stop-color="#D7B333"/>
<stop offset="0.84451" stop-color="#121315"/>
</radialGradient>
</defs>
</svg>
