<svg width="134" height="348" viewBox="0 0 134 348" fill="none" xmlns="http://www.w3.org/2000/svg">
<path d="M5.20001 3.29109C5.20001 1.89238 4.00001 0.693481 2.60001 0.693481C1.2 0.693481 0 1.89238 0 3.29109C0 4.6898 1.2 5.88867 2.60001 5.88867C4.10001 5.88867 5.20001 4.6898 5.20001 3.29109Z" fill="white"/>
<path d="M133.3 3.29109C133.3 1.89238 132.1 0.693481 130.7 0.693481C129.3 0.693481 128.1 1.89238 128.1 3.29109C128.1 4.6898 129.3 5.88867 130.7 5.88867C132.1 5.88867 133.3 4.6898 133.3 3.29109Z" fill="white"/>
<path d="M108.4 39.1579C95.2001 34.9618 81.2001 32.7638 66.6001 32.7638C52.0001 32.7638 37.9001 35.0617 24.6001 39.2578" stroke="#3072F8" stroke-miterlimit="10" stroke-linecap="round" stroke-linejoin="round"/>
<path d="M3.5 5.58868L42.5 67.8311C50.1 66.1326 58.1 65.2335 66.2 65.2335C74.4 65.2335 82.3 66.1326 89.9 67.8311L129.7 5.58868" stroke="white" stroke-miterlimit="10" stroke-linecap="round" stroke-linejoin="round"/>
<path d="M5.20001 344.975C5.20001 346.373 4.00001 347.572 2.60001 347.572C1.2 347.572 0 346.373 0 344.975C0 343.576 1.2 342.377 2.60001 342.377C4.10001 342.377 5.20001 343.576 5.20001 344.975Z" fill="white"/>
<path d="M133.3 344.975C133.3 346.373 132.1 347.572 130.7 347.572C129.3 347.572 128.1 346.373 128.1 344.975C128.1 343.576 129.3 342.377 130.7 342.377C132.1 342.377 133.3 343.576 133.3 344.975Z" fill="white"/>
<path d="M108.4 309.109C95.2001 313.305 81.2001 315.503 66.6001 315.503C52.0001 315.503 37.9001 313.205 24.6001 309.009" stroke="#3072F8" stroke-miterlimit="10" stroke-linecap="round" stroke-linejoin="round"/>
<path d="M3.5 342.677L42.5 280.435C50.1 282.133 58.1 283.032 66.2 283.032C74.4 283.032 82.3 282.133 89.9 280.435L129.7 342.677" stroke="white" stroke-miterlimit="10" stroke-linecap="round" stroke-linejoin="round"/>
</svg>
