<svg width="45" height="148" viewBox="0 0 45 148" fill="none" xmlns="http://www.w3.org/2000/svg">
<mask id="path-1-inside-1_201_24230" fill="white">
<path d="M17.2139 145.267C23.366 149.704 32.0558 147.167 34.3304 139.93C40.865 119.142 44.2954 96.7663 44.3797 74.0889C44.4642 51.3847 41.1925 28.9381 34.7978 8.04101C32.5828 0.802612 23.9399 -1.81327 17.75 2.54403L5.64763 11.0634C1.26998 14.145 -0.39769 19.8004 1.22307 24.9026C6.12582 40.3369 8.63828 56.9934 8.57561 73.8475C8.51293 90.706 5.87538 107.332 0.855555 122.703C-0.802111 127.779 0.804573 133.433 5.13537 136.556L17.2139 145.267Z"/>
</mask>
<path d="M44.3797 74.0889L91.3794 74.2637L44.3797 74.0889ZM8.57561 73.8475L-38.4241 73.6727L8.57561 73.8475ZM5.64763 11.0634L32.7019 49.496L5.64763 11.0634ZM1.22307 24.9026L46.0174 10.6735L1.22307 24.9026ZM34.7978 8.04101L79.7406 -5.71189V-5.71189L34.7978 8.04101ZM17.75 2.54403L44.8042 40.9767L17.75 2.54403ZM0.855555 122.703L-43.8222 108.112V108.112L0.855555 122.703ZM5.13537 136.556L-22.3571 174.677H-22.3571L5.13537 136.556ZM34.3304 139.93L79.1674 154.024L34.3304 139.93ZM17.2139 145.267L44.7064 107.147H44.7064L17.2139 145.267ZM79.1674 154.024C87.1653 128.58 91.2781 101.503 91.3794 74.2637L-2.61993 73.9142C-2.68729 92.0297 -5.43528 109.703 -10.5067 125.837L79.1674 154.024ZM91.3794 74.2637C91.4808 46.9922 87.5602 19.8414 79.7406 -5.71189L-10.145 21.7939C-5.17516 38.0348 -2.55249 55.7773 -2.61993 73.9142L91.3794 74.2637ZM-9.30426 -35.8886L-21.4066 -27.3693L32.7019 49.496L44.8042 40.9767L-9.30426 -35.8886ZM-43.5713 39.1317C-40.1988 49.7486 -38.3789 61.5346 -38.4241 73.6727L55.5753 74.0223C55.6555 52.4521 52.4504 30.9251 46.0174 10.6735L-43.5713 39.1317ZM-38.4241 73.6727C-38.4692 85.8144 -40.3776 97.5643 -43.8222 108.112L45.5333 137.294C52.1283 117.1 55.4951 95.5977 55.5753 74.0223L-38.4241 73.6727ZM-22.3571 174.677L-10.2786 183.388L44.7064 107.147L32.6279 98.4358L-22.3571 174.677ZM-21.4066 -27.3693C-43.9318 -11.5129 -50.8742 16.1414 -43.5713 39.1317L46.0174 10.6735C50.0789 23.4593 46.4718 39.8028 32.7019 49.496L-21.4066 -27.3693ZM79.7406 -5.71189C67.4151 -45.9901 20.8865 -57.1411 -9.30426 -35.8886L44.8042 40.9767C26.9933 53.5145 -2.24957 47.5953 -10.145 21.7939L79.7406 -5.71189ZM-43.8222 108.112C-51.2877 130.971 -44.6426 158.604 -22.3571 174.677L32.6279 98.4358C46.2517 108.261 49.6835 124.586 45.5333 137.294L-43.8222 108.112ZM-10.5067 125.837C-2.3891 100.012 27.0137 94.3869 44.7064 107.147L-10.2786 183.388C19.7183 205.021 66.5007 194.321 79.1674 154.024L-10.5067 125.837Z" fill="#1E1F24" mask="url(#path-1-inside-1_201_24230)"/>
</svg>
